<svg width="160" height="20" viewBox="0 0 160 20" fill="none" xmlns="http://www.w3.org/2000/svg">
<path d="M142.857 18.7125V17.465H141.429C141.024 17.465 140.685 17.3452 140.412 17.1057C140.138 16.8662 140.001 16.5701 140 16.2175V3.7425C140 3.38904 140.137 3.09297 140.412 2.85428C140.686 2.61559 141.025 2.49583 141.429 2.495H142.857V1.2475C142.857 0.894046 142.994 0.597973 143.269 0.359284C143.543 0.120596 143.882 0.000835968 144.286 4.30172e-06C144.69 -0.000827365 145.029 0.118933 145.304 0.359284C145.58 0.599636 145.716 0.895709 145.714 1.2475V2.495H147.143C147.548 2.495 147.887 2.61476 148.161 2.85428C148.436 3.0938 148.572 3.38988 148.572 3.7425V16.2175C148.572 16.571 148.434 16.8674 148.16 17.107C147.886 17.3465 147.547 17.4658 147.143 17.465H145.714V18.7125C145.714 19.066 145.577 19.3624 145.303 19.602C145.029 19.8415 144.69 19.9608 144.286 19.96C143.882 19.9592 143.543 19.8394 143.269 19.6007C142.994 19.362 142.857 19.066 142.857 18.7125ZM142.857 14.97H145.714V4.99H142.857V14.97ZM154.286 18.7125V13.7225H152.857C152.452 13.7225 152.113 13.6027 151.84 13.3632C151.567 13.1237 151.43 12.8276 151.429 12.475V6.2375C151.429 5.88404 151.566 5.58797 151.84 5.34928C152.114 5.11059 152.453 4.99083 152.857 4.99H154.286V1.2475C154.286 0.894046 154.423 0.597973 154.697 0.359284C154.972 0.120596 155.311 0.000835968 155.714 4.30172e-06C156.118 -0.000827365 156.458 0.118933 156.733 0.359284C157.008 0.599636 157.145 0.895709 157.143 1.2475V4.99H158.572C158.976 4.99 159.316 5.10976 159.59 5.34928C159.864 5.5888 160.001 5.88487 160 6.2375V12.475C160 12.8285 159.863 13.1249 159.589 13.3645C159.314 13.604 158.975 13.7233 158.572 13.7225H157.143V18.7125C157.143 19.066 157.006 19.3624 156.732 19.602C156.457 19.8415 156.118 19.9608 155.714 19.96C155.311 19.9592 154.972 19.8394 154.697 19.6007C154.423 19.362 154.286 19.066 154.286 18.7125ZM154.286 11.2275H157.143V7.485H154.286V11.2275Z" fill="#8B97A3"/>
<path d="M5.23633 16V3.64H0.236328V1.9H12.2963V3.64H7.29633V16H5.23633Z" fill="#8B97A3"/>
<path d="M12.2599 16V6.24H14.2199V8.58H14.0199C14.2333 7.78 14.6133 7.17333 15.1599 6.76C15.7199 6.34667 16.4599 6.10667 17.3799 6.04L18.0399 6L18.1799 7.72L16.9599 7.84C16.0933 7.92 15.4333 8.19333 14.9799 8.66C14.5266 9.12667 14.2999 9.76667 14.2999 10.58V16H12.2599Z" fill="#8B97A3"/>
<path d="M22.7432 16.18C22.0632 16.18 21.4499 16.0467 20.9032 15.78C20.3699 15.5133 19.9499 15.1533 19.6432 14.7C19.3365 14.2467 19.1832 13.7333 19.1832 13.16C19.1832 12.44 19.3632 11.8733 19.7232 11.46C20.0965 11.0333 20.7032 10.7333 21.5432 10.56C22.3965 10.3733 23.5432 10.28 24.9832 10.28H25.9232V11.52H25.0032C24.2832 11.52 23.6765 11.5467 23.1832 11.6C22.6899 11.6533 22.2965 11.74 22.0032 11.86C21.7099 11.9667 21.4965 12.12 21.3632 12.32C21.2432 12.52 21.1832 12.76 21.1832 13.04C21.1832 13.5467 21.3565 13.96 21.7032 14.28C22.0499 14.5867 22.5299 14.74 23.1432 14.74C23.6365 14.74 24.0699 14.6267 24.4432 14.4C24.8165 14.16 25.1099 13.84 25.3232 13.44C25.5499 13.04 25.6632 12.58 25.6632 12.06V9.76C25.6632 9 25.5032 8.45333 25.1832 8.12C24.8632 7.78667 24.3365 7.62 23.6032 7.62C23.0432 7.62 22.4832 7.70667 21.9232 7.88C21.3632 8.04 20.7899 8.3 20.2032 8.66L19.5832 7.24C19.9299 7 20.3299 6.79333 20.7832 6.62C21.2365 6.44667 21.7099 6.31333 22.2032 6.22C22.7099 6.11333 23.1965 6.06 23.6632 6.06C24.5565 6.06 25.2899 6.2 25.8632 6.48C26.4499 6.76 26.8832 7.18667 27.1632 7.76C27.4432 8.33333 27.5832 9.07333 27.5832 9.98V16H25.6832V13.82H25.8632C25.7565 14.3133 25.5565 14.74 25.2632 15.1C24.9832 15.4467 24.6299 15.7133 24.2032 15.9C23.7765 16.0867 23.2899 16.18 22.7432 16.18Z" fill="#8B97A3"/>
<path d="M34.0854 16.18C33.2321 16.18 32.4787 15.98 31.8254 15.58C31.1854 15.1667 30.6854 14.58 30.3254 13.82C29.9654 13.0467 29.7854 12.1467 29.7854 11.12C29.7854 10.0667 29.9654 9.16667 30.3254 8.42C30.6854 7.67333 31.1854 7.09333 31.8254 6.68C32.4787 6.26667 33.2321 6.06 34.0854 6.06C34.9387 6.06 35.6721 6.27333 36.2854 6.7C36.9121 7.11333 37.3321 7.67333 37.5454 8.38H37.3254V1.9H39.3454V16H37.3654V13.8H37.5654C37.3521 14.52 36.9321 15.1 36.3054 15.54C35.6921 15.9667 34.9521 16.18 34.0854 16.18ZM34.6054 14.62C35.4321 14.62 36.0987 14.32 36.6054 13.72C37.1121 13.12 37.3654 12.2533 37.3654 11.12C37.3654 9.97333 37.1121 9.10667 36.6054 8.52C36.0987 7.93333 35.4321 7.64 34.6054 7.64C33.7654 7.64 33.0921 7.93333 32.5854 8.52C32.0787 9.10667 31.8254 9.97333 31.8254 11.12C31.8254 12.2533 32.0787 13.12 32.5854 13.72C33.0921 14.32 33.7654 14.62 34.6054 14.62Z" fill="#8B97A3"/>
<path d="M42.0018 3.98V1.88H44.3618V3.98H42.0018ZM42.1818 16V6.24H44.2018V16H42.1818Z" fill="#8B97A3"/>
<path d="M47.0451 16V6.24H49.0051V8.32H48.7851C49.0784 7.57333 49.5384 7.01333 50.1651 6.64C50.7917 6.25333 51.5117 6.06 52.3251 6.06C53.0984 6.06 53.7384 6.20667 54.2451 6.5C54.7651 6.78 55.1517 7.21333 55.4051 7.8C55.6584 8.37333 55.7851 9.1 55.7851 9.98V16H53.7651V10.1C53.7651 9.54 53.6917 9.08667 53.5451 8.74C53.3984 8.38 53.1784 8.11333 52.8851 7.94C52.5917 7.76667 52.2117 7.68 51.7451 7.68C51.2117 7.68 50.7384 7.79333 50.3251 8.02C49.9251 8.24667 49.6117 8.57333 49.3851 9C49.1717 9.42667 49.0651 9.92 49.0651 10.48V16H47.0451Z" fill="#8B97A3"/>
<path d="M62.9885 19.78C62.1085 19.78 61.2885 19.6733 60.5285 19.46C59.7685 19.2467 59.0952 18.9267 58.5085 18.5L59.1285 17.06C59.5152 17.3133 59.9085 17.5267 60.3085 17.7C60.7219 17.8867 61.1352 18.02 61.5485 18.1C61.9752 18.18 62.4085 18.22 62.8485 18.22C63.7818 18.22 64.4819 17.98 64.9485 17.5C65.4152 17.0333 65.6485 16.34 65.6485 15.42V13.38H65.8285C65.6285 14.1133 65.2085 14.6933 64.5685 15.12C63.9285 15.5467 63.1885 15.76 62.3485 15.76C61.4685 15.76 60.7018 15.56 60.0485 15.16C59.3952 14.7467 58.8885 14.18 58.5285 13.46C58.1685 12.7267 57.9885 11.8733 57.9885 10.9C57.9885 9.92667 58.1685 9.08 58.5285 8.36C58.8885 7.64 59.3952 7.08 60.0485 6.68C60.7018 6.26667 61.4685 6.06 62.3485 6.06C63.2018 6.06 63.9419 6.27333 64.5685 6.7C65.2085 7.12667 65.6219 7.70667 65.8085 8.44H65.6485V6.24H67.6085V15.18C67.6085 16.1933 67.4352 17.04 67.0885 17.72C66.7418 18.4133 66.2219 18.9267 65.5285 19.26C64.8485 19.6067 64.0019 19.78 62.9885 19.78ZM62.8285 14.18C63.6952 14.18 64.3752 13.8867 64.8685 13.3C65.3752 12.7133 65.6285 11.9133 65.6285 10.9C65.6285 9.9 65.3752 9.10667 64.8685 8.52C64.3752 7.93333 63.6952 7.64 62.8285 7.64C61.9752 7.64 61.2952 7.93333 60.7885 8.52C60.2819 9.10667 60.0285 9.9 60.0285 10.9C60.0285 11.9133 60.2819 12.7133 60.7885 13.3C61.2952 13.8867 61.9752 14.18 62.8285 14.18Z" fill="#8B97A3"/>
<path d="M75.9174 16V1.9H81.7974C83.2641 1.9 84.3974 2.22667 85.1974 2.88C86.0108 3.52 86.4174 4.42 86.4174 5.58C86.4174 6.43333 86.1641 7.15333 85.6574 7.74C85.1508 8.32667 84.4641 8.72 83.5974 8.92V8.62C84.2508 8.71333 84.8108 8.91333 85.2774 9.22C85.7574 9.51333 86.1241 9.90667 86.3774 10.4C86.6308 10.88 86.7574 11.4467 86.7574 12.1C86.7574 12.9267 86.5708 13.6333 86.1974 14.22C85.8241 14.8067 85.2841 15.2533 84.5774 15.56C83.8708 15.8533 83.0241 16 82.0374 16H75.9174ZM77.9174 14.4H81.7974C82.1974 14.4 82.5508 14.3733 82.8574 14.32C83.1774 14.2533 83.4508 14.16 83.6774 14.04C83.9174 13.9067 84.1174 13.7467 84.2774 13.56C84.4374 13.36 84.5508 13.1333 84.6174 12.88C84.6974 12.6267 84.7374 12.34 84.7374 12.02C84.7374 11.7 84.6974 11.4133 84.6174 11.16C84.5508 10.9067 84.4374 10.6867 84.2774 10.5C84.1174 10.3133 83.9174 10.16 83.6774 10.04C83.4508 9.90667 83.1774 9.81333 82.8574 9.76C82.5508 9.69333 82.1974 9.66 81.7974 9.66H77.9174V14.4ZM77.9174 8.06H81.4774C82.4374 8.06 83.1641 7.86667 83.6574 7.48C84.1508 7.09333 84.3974 6.52667 84.3974 5.78C84.3974 5.03333 84.1508 4.46667 83.6574 4.08C83.1641 3.69333 82.4374 3.5 81.4774 3.5H77.9174V8.06Z" fill="#8B97A3"/>
<path d="M89.3302 16V6.24H91.2902V8.58H91.0902C91.3036 7.78 91.6836 7.17333 92.2302 6.76C92.7902 6.34667 93.5302 6.10667 94.4502 6.04L95.1102 6L95.2502 7.72L94.0302 7.84C93.1636 7.92 92.5036 8.19333 92.0502 8.66C91.5969 9.12667 91.3702 9.76667 91.3702 10.58V16H89.3302Z" fill="#8B97A3"/>
<path d="M100.894 16.18C99.9078 16.18 99.0544 15.9733 98.3344 15.56C97.6278 15.1467 97.0745 14.56 96.6745 13.8C96.2745 13.04 96.0745 12.1467 96.0745 11.12C96.0745 10.08 96.2745 9.18667 96.6745 8.44C97.0745 7.68 97.6278 7.09333 98.3344 6.68C99.0544 6.26667 99.9078 6.06 100.894 6.06C101.868 6.06 102.708 6.26667 103.414 6.68C104.134 7.09333 104.694 7.68 105.094 8.44C105.494 9.2 105.694 10.0933 105.694 11.12C105.694 12.1467 105.494 13.04 105.094 13.8C104.694 14.56 104.134 15.1467 103.414 15.56C102.708 15.9733 101.868 16.18 100.894 16.18ZM100.874 14.62C101.714 14.62 102.388 14.32 102.894 13.72C103.401 13.12 103.654 12.2533 103.654 11.12C103.654 9.97333 103.401 9.10667 102.894 8.52C102.388 7.93333 101.714 7.64 100.874 7.64C100.048 7.64 99.3811 7.93333 98.8745 8.52C98.3678 9.10667 98.1145 9.97333 98.1145 11.12C98.1145 12.2533 98.3678 13.12 98.8745 13.72C99.3811 14.32 100.048 14.62 100.874 14.62Z" fill="#8B97A3"/>
<path d="M107.963 16V1.9H109.983V10.5H110.023L114.263 6.24H116.763L111.623 11.4V10.46L117.123 16H114.603L110.023 11.54H109.983V16H107.963Z" fill="#8B97A3"/>
<path d="M122.641 16.18C121.574 16.18 120.654 15.98 119.881 15.58C119.121 15.1667 118.527 14.5867 118.101 13.84C117.687 13.08 117.481 12.18 117.481 11.14C117.481 10.1267 117.687 9.24 118.101 8.48C118.514 7.72 119.081 7.12667 119.801 6.7C120.521 6.27333 121.341 6.06 122.261 6.06C123.167 6.06 123.941 6.26 124.581 6.66C125.234 7.04667 125.734 7.6 126.081 8.32C126.427 9.04 126.601 9.9 126.601 10.9V11.58H119.081V10.34H125.241L124.901 10.62C124.901 9.62 124.681 8.84667 124.241 8.3C123.801 7.75333 123.167 7.48 122.341 7.48C121.714 7.48 121.181 7.62667 120.741 7.92C120.314 8.21333 119.987 8.62 119.761 9.14C119.534 9.66 119.421 10.2667 119.421 10.96V11.08C119.421 11.8533 119.541 12.5067 119.781 13.04C120.034 13.56 120.401 13.9533 120.881 14.22C121.361 14.4867 121.954 14.62 122.661 14.62C123.221 14.62 123.767 14.5333 124.301 14.36C124.847 14.1733 125.361 13.8867 125.841 13.5L126.441 14.9C126.001 15.3 125.434 15.6133 124.741 15.84C124.047 16.0667 123.347 16.18 122.641 16.18Z" fill="#8B97A3"/>
<path d="M128.803 16V6.24H130.763V8.58H130.563C130.776 7.78 131.156 7.17333 131.703 6.76C132.263 6.34667 133.003 6.10667 133.923 6.04L134.583 6L134.723 7.72L133.503 7.84C132.636 7.92 131.976 8.19333 131.523 8.66C131.07 9.12667 130.843 9.76667 130.843 10.58V16H128.803Z" fill="#8B97A3"/>
</svg>
