<svg width="18" height="19" viewBox="0 0 18 19" fill="none" xmlns="http://www.w3.org/2000/svg">
<path d="M9.00001 4.37256C10.3275 4.37256 11.5163 4.83006 12.4538 5.72256L15.0225 3.15381C13.4625 1.70256 11.4263 0.810059 9.00001 0.810059C5.48251 0.810059 2.44126 2.82756 0.960007 5.76756L3.95251 8.08881C4.66126 5.95506 6.65251 4.37256 9.00001 4.37256Z" fill="#EA4335"/>
<path d="M17.6175 10.0163C17.6175 9.42756 17.5613 8.85756 17.475 8.31006H9V11.6926H13.8525C13.635 12.8026 13.005 13.7476 12.06 14.3851L14.9588 16.6351C16.65 15.0676 17.6175 12.7501 17.6175 10.0163Z" fill="#4285F4"/>
<path d="M3.94875 11.5313C3.76875 10.9876 3.66375 10.4101 3.66375 9.81006C3.66375 9.21006 3.765 8.63256 3.94875 8.08881L0.95625 5.76756C0.345 6.98256 0 8.35506 0 9.81006C0 11.2651 0.345 12.6376 0.96 13.8526L3.94875 11.5313Z" fill="#FBBC05"/>
<path d="M9 18.8101C11.43 18.8101 13.4738 18.0113 14.9588 16.6313L12.06 14.3813C11.2538 14.9251 10.215 15.2438 9 15.2438C6.6525 15.2438 4.66125 13.6613 3.94875 11.5276L0.956253 13.8488C2.44125 16.7926 5.4825 18.8101 9 18.8101Z" fill="#34A853"/>
</svg>
