<svg width="17" height="18" viewBox="0 0 17 18" fill="none" xmlns="http://www.w3.org/2000/svg">
<path d="M8.7627 7.72998V11.032H13.3514C13.1499 12.0939 12.5453 12.993 11.6383 13.5976L14.4055 15.7448C16.0177 14.2565 16.948 12.0707 16.948 9.47409C16.948 8.8695 16.8937 8.2881 16.7929 7.73008L8.7627 7.72998Z" fill="#4285F4"/>
<path d="M3.98362 10.9031L3.35952 11.3808L1.15039 13.1015C2.55336 15.8842 5.42884 17.8065 8.76182 17.8065C11.0639 17.8065 12.9939 17.0469 14.4046 15.7448L11.6374 13.5977C10.8778 14.1093 9.90897 14.4193 8.76182 14.4193C6.54499 14.4193 4.66151 12.9233 3.98711 10.908L3.98362 10.9031Z" fill="#34A853"/>
<path d="M1.1509 5.45883C0.569594 6.60596 0.236328 7.90043 0.236328 9.28012C0.236328 10.6598 0.569594 11.9543 1.1509 13.1014C1.1509 13.1091 3.98789 10.9 3.98789 10.9C3.81736 10.3885 3.71657 9.8459 3.71657 9.28003C3.71657 8.71412 3.81736 8.17156 3.98789 7.66L1.1509 5.45883Z" fill="#FBBC05"/>
<path d="M8.762 4.14892C10.0177 4.14892 11.1338 4.58298 12.0252 5.42012L14.4669 2.97853C12.9864 1.59884 11.0641 0.753906 8.762 0.753906C5.42901 0.753906 2.55336 2.66845 1.15039 5.45889L3.98729 7.66023C4.6616 5.64489 6.54517 4.14892 8.762 4.14892Z" fill="#EA4335"/>
</svg>
