<svg width="18" height="19" viewBox="0 0 18 19" fill="none" xmlns="http://www.w3.org/2000/svg">
<g clip-path="url(#clip0_3_265)">
<path d="M13.1988 9.02293C13.3331 9.15723 13.4003 9.31627 13.4003 9.50005C13.4003 9.68383 13.3331 9.84287 13.1988 9.97717L7.43094 15.745C7.29664 15.8793 7.1376 15.9465 6.95382 15.9465C6.77004 15.9465 6.611 15.8793 6.4767 15.745C6.3424 15.6107 6.27525 15.4517 6.27525 15.2679V12.2143H1.52525C1.34147 12.2143 1.18243 12.1472 1.04813 12.0129C0.91383 11.8786 0.84668 11.7195 0.84668 11.5358V7.46434C0.84668 7.28056 0.91383 7.12152 1.04813 6.98722C1.18243 6.85292 1.34147 6.78577 1.52525 6.78577H6.27525V3.7322C6.27525 3.54842 6.3424 3.38938 6.4767 3.25508C6.611 3.12077 6.77004 3.05362 6.95382 3.05362C7.1376 3.05362 7.29664 3.12077 7.43094 3.25508L13.1988 9.02293ZM17.1324 5.76791V13.2322C17.1324 14.0733 16.8338 14.7926 16.2365 15.3898C15.6392 15.9871 14.92 16.2858 14.0788 16.2858H10.686C10.5941 16.2858 10.5146 16.2522 10.4474 16.185C10.3803 16.1179 10.3467 16.0384 10.3467 15.9465C10.3467 15.9182 10.3431 15.8475 10.3361 15.7344C10.329 15.6213 10.3272 15.5277 10.3308 15.4535C10.3343 15.3792 10.3449 15.2962 10.3626 15.2043C10.3803 15.1124 10.4156 15.0435 10.4686 14.9975C10.5216 14.9516 10.5941 14.9286 10.686 14.9286H14.0788C14.5453 14.9286 14.9447 14.7625 15.2769 14.4303C15.6091 14.0981 15.7753 13.6987 15.7753 13.2322V5.76791C15.7753 5.30139 15.6091 4.90202 15.2769 4.56981C14.9447 4.23759 14.5453 4.07148 14.0788 4.07148H11.0253C11.0182 4.07148 10.9793 4.07148 10.9086 4.07148C10.8379 4.07148 10.792 4.07148 10.7708 4.07148C10.7496 4.07148 10.7089 4.06795 10.6489 4.06088C10.5888 4.05381 10.5481 4.04321 10.5269 4.02907C10.5057 4.01493 10.4774 3.9955 10.4421 3.97076C10.4068 3.94602 10.382 3.91421 10.3679 3.87533C10.3537 3.83646 10.3467 3.78874 10.3467 3.7322C10.3467 3.70392 10.3431 3.63324 10.3361 3.52014C10.329 3.40705 10.3272 3.31339 10.3308 3.23917C10.3343 3.16495 10.3449 3.0819 10.3626 2.99001C10.3803 2.89812 10.4156 2.8292 10.4686 2.78326C10.5216 2.73731 10.5941 2.71434 10.686 2.71434H14.0788C14.92 2.71434 15.6392 3.01298 16.2365 3.61026C16.8338 4.20755 17.1324 4.92676 17.1324 5.76791Z" fill="#8EA5C0"/>
</g>
<defs>
<clipPath id="clip0_3_265">
<rect width="16.3" height="19" fill="white" transform="matrix(1 0 0 -1 0.839844 19)"/>
</clipPath>
</defs>
</svg>
