<svg width="22" height="19" viewBox="0 0 22 19" fill="none" xmlns="http://www.w3.org/2000/svg">
<g clip-path="url(#clip0_3_259)">
<path d="M10.4855 8.30716C10.4855 8.30716 10.2867 8.50596 9.88909 8.90356C9.49149 9.30117 8.73075 9.49997 7.60686 9.49997C6.48298 9.49997 5.52344 9.10236 4.72824 8.30716C3.93304 7.51196 3.53544 6.55242 3.53544 5.42854C3.53544 4.30465 3.93304 3.34511 4.72824 2.54991C5.52344 1.75471 6.48298 1.35711 7.60686 1.35711C8.73075 1.35711 9.69029 1.75471 10.4855 2.54991C11.2807 3.34511 11.6783 4.30465 11.6783 5.42854C11.6783 6.55242 11.2807 7.51196 10.4855 8.30716ZM17.7854 10.8571H21.5176C21.6095 10.8571 21.689 10.8907 21.7561 10.9578C21.8233 11.025 21.8569 11.1045 21.8569 11.1964V13.2321C21.8569 13.324 21.8233 13.4035 21.7561 13.4707C21.689 13.5378 21.6095 13.5714 21.5176 13.5714H17.7854V17.3035C17.7854 17.3954 17.7519 17.4749 17.6847 17.5421C17.6176 17.6092 17.538 17.6428 17.4461 17.6428H15.4104C15.3185 17.6428 15.239 17.6092 15.1719 17.5421C15.1047 17.4749 15.0711 17.3954 15.0711 17.3035V13.5714H11.339C11.2471 13.5714 11.1676 13.5378 11.1004 13.4707C11.0333 13.4035 10.9997 13.324 10.9997 13.2321V11.1964C10.9997 11.1045 11.0333 11.025 11.1004 10.9578C11.1676 10.8907 11.2471 10.8571 11.339 10.8571H15.0711V7.12497C15.0711 7.03308 15.1047 6.95356 15.1719 6.88641C15.239 6.81925 15.3185 6.78568 15.4104 6.78568H17.4461C17.538 6.78568 17.6176 6.81925 17.6847 6.88641C17.7519 6.95356 17.7854 7.03308 17.7854 7.12497V10.8571ZM9.98186 13.2321C9.98186 13.5997 10.1162 13.9177 10.3848 14.1863C10.6534 14.455 10.9714 14.5893 11.339 14.5893H14.0533V17.1127C13.5726 17.4661 12.9683 17.6428 12.2402 17.6428H2.97349C2.11821 17.6428 1.43257 17.399 0.916574 16.9112C0.400577 16.4235 0.142578 15.752 0.142578 14.8967C0.142578 14.5221 0.154948 14.1563 0.179687 13.7994C0.204427 13.4424 0.253906 13.0572 0.328125 12.6437C0.402344 12.2302 0.496001 11.8467 0.609096 11.4933C0.722191 11.1398 0.874163 10.7953 1.06501 10.4595C1.25586 10.1238 1.47498 9.83748 1.72238 9.60069C1.96977 9.3639 2.27195 9.17482 2.62891 9.03345C2.98586 8.89208 3.37993 8.82139 3.8111 8.82139C3.94541 8.82139 4.08324 8.88148 4.22461 9.00164C4.78302 9.43282 5.32905 9.7562 5.86272 9.97178C6.39639 10.1874 6.97777 10.2952 7.60686 10.2952C8.23596 10.2952 8.81734 10.1874 9.351 9.97178C9.88467 9.7562 10.4307 9.43282 10.9891 9.00164C11.1305 8.88148 11.2683 8.82139 11.4026 8.82139C12.3357 8.82139 13.1026 9.16068 13.7034 9.83925H11.339C10.9714 9.83925 10.6534 9.97355 10.3848 10.2422C10.1162 10.5108 9.98186 10.8288 9.98186 11.1964V13.2321Z" fill="#8EA5C0"/>
</g>
<defs>
<clipPath id="clip0_3_259">
<rect width="21.72" height="19" fill="white" transform="matrix(1 0 0 -1 0.139648 19)"/>
</clipPath>
</defs>
</svg>
