<svg width="18" height="19" viewBox="0 0 18 19" fill="none" xmlns="http://www.w3.org/2000/svg">
<g clip-path="url(#clip0_3_253)">
<path d="M10.3467 14.5893V12.5535C10.3467 12.4546 10.3149 12.3733 10.2513 12.3097C10.1876 12.2461 10.1064 12.2143 10.0074 12.2143H7.97168C7.87272 12.2143 7.79143 12.2461 7.72782 12.3097C7.6642 12.3733 7.63239 12.4546 7.63239 12.5535V14.5893C7.63239 14.6882 7.6642 14.7695 7.72782 14.8331C7.79143 14.8967 7.87272 14.9285 7.97168 14.9285H10.0074C10.1064 14.9285 10.1876 14.8967 10.2513 14.8331C10.3149 14.7695 10.3467 14.6882 10.3467 14.5893ZM13.061 7.46425C13.061 6.84223 12.8648 6.26615 12.4725 5.73601C12.0802 5.20588 11.5907 4.79591 11.004 4.5061C10.4174 4.2163 9.81655 4.07139 9.20159 4.07139C7.48396 4.07139 6.17276 4.82418 5.268 6.32976C5.16197 6.49941 5.19024 6.64785 5.35282 6.77508L6.75237 7.83534C6.80185 7.87776 6.869 7.89896 6.95382 7.89896C7.06692 7.89896 7.15527 7.85655 7.21889 7.77173C7.59352 7.29107 7.89746 6.96593 8.13072 6.79628C8.37105 6.62664 8.67499 6.54182 9.04255 6.54182C9.38184 6.54182 9.68401 6.63371 9.94908 6.81749C10.2141 7.00127 10.3467 7.20979 10.3467 7.44305C10.3467 7.71165 10.276 7.92723 10.1346 8.08981C9.99326 8.25238 9.75293 8.41142 9.41364 8.56693C8.96833 8.76485 8.56013 9.07056 8.18903 9.48406C7.81794 9.89757 7.63239 10.3411 7.63239 10.8147V11.1964C7.63239 11.2954 7.6642 11.3766 7.72782 11.4403C7.79143 11.5039 7.87272 11.5357 7.97168 11.5357H10.0074C10.1064 11.5357 10.1876 11.5039 10.2513 11.4403C10.3149 11.3766 10.3467 11.2954 10.3467 11.1964C10.3467 11.0621 10.4227 10.8871 10.5746 10.6716C10.7266 10.456 10.9192 10.281 11.1525 10.1467C11.3787 10.0195 11.5519 9.91877 11.672 9.84455C11.7922 9.77033 11.9548 9.64664 12.1597 9.47346C12.3647 9.30028 12.522 9.13064 12.6316 8.96453C12.7411 8.79842 12.8401 8.5846 12.9284 8.32307C13.0168 8.06154 13.061 7.77526 13.061 7.46425ZM16.0403 5.41263C16.0403 5.41263 16.2223 5.72453 16.5864 6.34832C16.9504 6.97211 17.1324 8.02266 17.1324 9.49997C17.1324 10.9773 16.7684 12.3397 16.0403 13.5873C15.3123 14.8349 14.3245 15.8227 13.0769 16.5507C11.8293 17.2788 10.4668 17.6428 8.98954 17.6428C7.51223 17.6428 6.14979 17.2788 4.9022 16.5507C3.65462 15.8227 2.66681 14.8349 1.93876 13.5873C1.2107 12.3397 0.84668 10.9773 0.84668 9.49997C0.84668 8.02266 1.2107 6.66021 1.93876 5.41263C2.66681 4.16505 3.65462 3.17723 4.9022 2.44918C6.14979 1.72113 7.51223 1.35711 8.98954 1.35711C10.4668 1.35711 11.8293 1.72113 13.0769 2.44918C14.3245 3.17723 15.3123 4.16505 16.0403 5.41263Z" fill="#8EA5C0"/>
</g>
<defs>
<clipPath id="clip0_3_253">
<rect width="16.3" height="19" fill="white" transform="matrix(1 0 0 -1 0.839844 19)"/>
</clipPath>
</defs>
</svg>
