<svg width="62" height="63" viewBox="0 0 62 63" fill="none" xmlns="http://www.w3.org/2000/svg">
<path d="M53.8622 14.5674L53.8567 14.562L53.8512 14.5566C53.488 14.2045 52.9936 14.0152 52.4896 14.0365C47.1695 14.2367 43.0384 16.1814 40.264 19.7628C37.5158 23.3102 36.1997 28.3337 36.1997 34.5134V47.3174C36.1997 48.5558 37.2014 49.5729 38.4502 49.5729H38.4679H38.4858H38.5038H38.5219H38.5401H38.5584H38.5768H38.5953H38.6139H38.6326H38.6514H38.6703H38.6894H38.7085H38.7277H38.747H38.7664H38.7859H38.8056H38.8253H38.8451H38.865H38.885H38.9051H38.9253H38.9456H38.966H38.9865H39.0071H39.0278H39.0485H39.0694H39.0903H39.1114H39.1325H39.1538H39.1751H39.1965H39.218H39.2396H39.2613H39.2831H39.3049H39.3269H39.3489H39.3711H39.3933H39.4156H39.438H39.4605H39.483H39.5057H39.5284H39.5512H39.5741H39.5971H39.6202H39.6433H39.6665H39.6898H39.7132H39.7367H39.7603H39.7839H39.8076H39.8314H39.8553H39.8792H39.9033H39.9274H39.9516H39.9758H40.0002H40.0246H40.0491H40.0736H40.0983H40.123H40.1478H40.1726H40.1976H40.2226H40.2476H40.2728H40.298H40.3233H40.3487H40.3741H40.3996H40.4252H40.4508H40.4765H40.5023H40.5282H40.5541H40.5801H40.6061H40.6322H40.6584H40.6846H40.7109H40.7373H40.7638H40.7903H40.8168H40.8434H40.8701H40.8969H40.9237H40.9506H40.9775H41.0045H41.0315H41.0587H41.0858H41.1131H41.1404H41.1677H41.1951H41.2226H41.2501H41.2777H41.3053H41.333H41.3607H41.3885H41.4163H41.4442H41.4722H41.5002H41.5283H41.5564H41.5845H41.6127H41.641H41.6693H41.6977H41.7261H41.7546H41.7831H41.8116H41.8402H41.8689H41.8976H41.9263H41.9551H41.984H42.0129H42.0418H42.0708H42.0998H42.1288H42.1579H42.1871H42.2163H42.2455H42.2748H42.3041H42.3334H42.3628H42.3923H42.4218H42.4513H42.4808H42.5104H42.54H42.5697H42.5994H42.6291H42.6589H42.6887H42.7186H42.7484H42.7784H42.8083H42.8383H42.8683H42.8984H42.9284H42.9585H42.9887H43.0189H43.0491H43.0793H43.1096H43.1399H43.1702H43.2005H43.2309H43.2613H43.2918H43.3222H43.3527H43.3832H43.4138H43.4444H43.4749H43.5056H43.5362H43.5669H43.5976H43.6283H43.659H43.6898H43.7205H43.7513H43.7821H43.813H43.8438H43.8747H43.9056H43.9365H43.9675H43.9984H44.0294H44.0604H44.0914H44.1224H44.1534H44.1845H44.2155H44.2466H44.2777H44.3088H44.3399H44.3711H44.4022H44.4334H44.4645H44.4957H44.5269H44.5581H44.5893H44.6205H44.6518H44.683H44.7142H44.7455H44.7768H44.808H44.8393H44.8706H44.9019H44.9332H44.9645H44.9958H45.0271H45.0584H45.0897H45.121H45.1523H45.1837H45.215H45.2463H45.2776H45.3089H45.3403H45.3716H45.4029H45.4342H45.4656H45.4969H45.5282H45.5595H45.5908H45.6221H45.6534H45.6847H45.716H45.7473H45.7786H45.8098H45.8411H45.8724H45.9036H45.9349H45.9661H45.9973H46.0285H46.0597H46.0909H46.1221H46.1533H46.1845H46.2156H46.2468H46.2779H46.309H46.3401H46.3712H46.4023H46.4333H46.4644H46.4954H46.5264H46.5574H46.5884H46.6194H46.6503H46.6812H46.7122H46.743H46.7739H46.8048H46.8356H46.8664H46.8972H46.928H46.9587H46.9895H47.0202H47.0508H47.0815H47.1121H47.1427H47.1733H47.2039H47.2344H47.2649H47.2954H47.3259H47.3563H47.3867H47.4171H47.4474H47.4777H47.508H47.5383H47.5685H47.5987H47.6289H47.659H47.6891H47.7192H47.7492H47.7792H47.8092H47.8391H47.869H47.8989H47.9287H47.9585H47.9883H48.018H48.0477H48.0774H48.107H48.1366H48.1661H48.1956H48.2251H48.2545H48.2839H48.3132H48.3425H48.3718H48.401H48.4302H48.4593H48.4884H48.5175H48.5465H48.5754H48.6044H48.6332H48.662H48.6908H48.7196H48.7483H48.7769H48.8055H48.834H48.8625H48.891H48.9194H48.9477H48.976H49.0043H49.0325H49.0606H49.0887H49.1168H49.1448H49.1727H49.2006H49.2284H49.2562H49.2839H49.3116H49.3392H49.3667H49.3942H49.4217H49.4491H49.4764H49.5037H49.5309H49.5581H49.5851H49.6122H49.6392H49.6661H49.6929H49.7197H49.7465H49.7731H49.7997H49.8263H49.8528H49.8792H49.9055H49.9318H49.9581H49.9842H50.0103H50.0363H50.0623H50.0882H50.114H50.1398H50.1655H50.1911H50.2167H50.2421H50.2676H50.2929H50.3182H50.3434H50.3685H50.3936H50.4185H50.4435H50.4683H50.4931H50.5178H50.5424H50.5669H50.5914H50.6158H50.6401H50.6643H50.6885H50.7126H50.7366H50.7605H50.7844H50.8081H50.8318H50.8555H50.879H50.9024H50.9258H50.9491H50.9723H50.9954H51.0185H51.0414H51.0643H51.0871H51.1098H51.1324H51.155H51.1774H51.1998H51.2221H51.2443H51.2664H51.2884H51.3103H51.3321H51.3539H51.3756H51.3971H51.4186H51.44H51.4613H51.4825H51.5036H51.5246H51.5456H51.5664H51.5872H51.6078H51.6284H51.6488H51.6692H51.6895H51.7096H51.7297H51.7497H51.7696H51.7894H51.8091H51.8286H51.8481H51.8675H51.8868H51.906H51.9251H51.9441H51.963H51.9818H52.0004H52.019H52.0375H52.0559H52.0741H52.0923H52.1104H52.1283H52.1462H52.1639C53.4128 49.5729 54.4143 48.5557 54.4143 47.3174V47.3018V47.2861V47.2702V47.2544V47.2384V47.2223V47.2062V47.19V47.1737V47.1574V47.1409V47.1244V47.1078V47.0911V47.0744V47.0575V47.0406V47.0236V47.0066V46.9894V46.9722V46.9549V46.9376V46.9202V46.9027V46.8851V46.8674V46.8497V46.8319V46.814V46.7961V46.7781V46.76V46.7418V46.7236V46.7053V46.6869V46.6685V46.65V46.6314V46.6128V46.5941V46.5753V46.5564V46.5375V46.5185V46.4995V46.4804V46.4612V46.4419V46.4226V46.4033V46.3838V46.3643V46.3447V46.3251V46.3054V46.2856V46.2658V46.2459V46.226V46.2059V46.1859V46.1657V46.1455V46.1253V46.105V46.0846V46.0641V46.0436V46.0231V46.0025V45.9818V45.9611V45.9403V45.9194V45.8985V45.8775V45.8565V45.8355V45.8143V45.7931V45.7719V45.7506V45.7292V45.7078V45.6864V45.6649V45.6433V45.6217V45.6V45.5783V45.5565V45.5347V45.5128V45.4908V45.4688V45.4468V45.4247V45.4026V45.3804V45.3582V45.3359V45.3136V45.2912V45.2687V45.2463V45.2237V45.2012V45.1786V45.1559V45.1332V45.1104V45.0876V45.0648V45.0419V45.0189V44.996V44.9729V44.9499V44.9268V44.9036V44.8804V44.8572V44.8339V44.8106V44.7872V44.7638V44.7403V44.7169V44.6933V44.6698V44.6462V44.6225V44.5988V44.5751V44.5513V44.5275V44.5037V44.4798V44.4559V44.432V44.408V44.384V44.3599V44.3358V44.3117V44.2875V44.2633V44.2391V44.2149V44.1906V44.1662V44.1419V44.1175V44.093V44.0686V44.0441V44.0196V43.995V43.9704V43.9458V43.9212V43.8965V43.8718V43.8471V43.8223V43.7975V43.7727V43.7479V43.723V43.6981V43.6732V43.6482V43.6232V43.5982V43.5732V43.5482V43.5231V43.498V43.4729V43.4477V43.4225V43.3973V43.3721V43.3469V43.3216V43.2963V43.271V43.2457V43.2203V43.1949V43.1695V43.1441V43.1187V43.0932V43.0678V43.0423V43.0168V42.9912V42.9657V42.9401V42.9146V42.889V42.8634V42.8377V42.8121V42.7864V42.7607V42.735V42.7093V42.6836V42.6579V42.6321V42.6064V42.5806V42.5548V42.529V42.5032V42.4774V42.4515V42.4257V42.3998V42.374V42.3481V42.3222V42.2963V42.2704V42.2445V42.2186V42.1926V42.1667V42.1407V42.1148V42.0888V42.0628V42.0369V42.0109V41.9849V41.9589V41.9329V41.9069V41.8809V41.8549V41.8289V41.8028V41.7768V41.7508V41.7248V41.6987V41.6727V41.6467V41.6206V41.5946V41.5686V41.5425V41.5165V41.4904V41.4644V41.4384V41.4123V41.3863V41.3603V41.3342V41.3082V41.2822V41.2562V41.2301V41.2041V41.1781V41.1521V41.1261V41.1001V41.0741V41.0481V41.0222V40.9962V40.9702V40.9443V40.9183V40.8924V40.8664V40.8405V40.8146V40.7887V40.7628V40.7369V40.711V40.6851V40.6593V40.6334V40.6076V40.5818V40.5559V40.5301V40.5043V40.4786V40.4528V40.427V40.4013V40.3756V40.3499V40.3242V40.2985V40.2728V40.2472V40.2215V40.1959V40.1703V40.1447V40.1192V40.0936V40.0681V40.0426V40.0171V39.9916V39.9661V39.9407V39.9153V39.8899V39.8645V39.8391V39.8138V39.7885V39.7632V39.7379V39.7126V39.6874V39.6622V39.637V39.6119V39.5867V39.5616V39.5365V39.5115V39.4864V39.4614V39.4364V39.4115V39.3865V39.3616V39.3367V39.3119V39.2871V39.2623V39.2375V39.2127V39.188V39.1633V39.1387V39.1141V39.0895V39.0649V39.0404V39.0159V38.9914V38.967V38.9426V38.9182V38.8938V38.8695V38.8453V38.821V38.7968V38.7726V38.7485V38.7244V38.7003V38.6763V38.6523V38.6283V38.6044V38.5805V38.5567V38.5329V38.5091V38.4854V38.4617V38.438V38.4144V38.3908V38.3673V38.3438V38.3203V38.2969V38.2735V38.2501V38.2269V38.2036V38.1804V38.1572V38.1341V38.111V38.088V38.065V38.042V38.0191V37.9962V37.9734V37.9506V37.9279V37.9052V37.8826V37.86V37.8375V37.815V37.7925V37.7701V37.7478V37.7255V37.7032V37.681V37.6589V37.6368V37.6147V37.5927V37.5708V37.5489V37.527V37.5052V37.4835V37.4618V37.4401V37.4185V37.397V37.3755V37.3541V37.3327V37.3114V37.2901V37.2689V37.2478V37.2267V37.2056V37.1847V37.1637V37.1429V37.122V37.1013V37.0806V37.06V37.0394V37.0189V36.9984V36.978V36.9577V36.9374V36.9172V36.897V36.8769V36.8569V36.8369V36.817V36.7971V36.7773V36.7576V36.738V36.7184V36.6988V36.6794V36.66V36.6406V36.6213V36.6021V36.583V36.5639V36.5449V36.526V36.5071V36.4883V36.4696V36.4509V36.4323V36.4138V36.3953V36.3769V36.3586V36.3403V36.3222V36.304V36.286V36.268V36.2501V36.2323V36.2146V36.1969V36.1793V36.1617V36.1443V36.1269V36.1096V36.0924V36.0752V36.0581V36.0411V36.0242V36.0073V35.9905V35.9738V35.9572V35.9406V35.9242V35.9078V35.8915V35.8752V35.8591V35.843V35.827V35.8111V35.7952V35.7795V35.7638C54.4143 34.5202 53.4075 33.5134 52.1639 33.5134H46.2318C45.9829 29.6173 46.5631 26.9827 47.6232 25.2827C48.7288 23.5097 50.4463 22.6121 52.7085 22.4215C53.6766 22.343 54.4143 21.5365 54.4143 20.5709V20.5639V20.5568V20.5496V20.5425V20.5353V20.5282V20.5209V20.5137V20.5065V20.4992V20.4919V20.4845V20.4772V20.4698V20.4624V20.455V20.4476V20.4401V20.4326V20.4251V20.4176V20.4101V20.4025V20.3949V20.3873V20.3797V20.372V20.3643V20.3566V20.3489V20.3412V20.3334V20.3256V20.3178V20.31V20.3022V20.2943V20.2864V20.2785V20.2706V20.2626V20.2547V20.2467V20.2387V20.2307V20.2226V20.2145V20.2065V20.1984V20.1902V20.1821V20.1739V20.1658V20.1576V20.1493V20.1411V20.1329V20.1246V20.1163V20.108V20.0997V20.0913V20.0829V20.0746V20.0662V20.0578V20.0493V20.0409V20.0324V20.0239V20.0154V20.0069V19.9983V19.9898V19.9812V19.9726V19.964V19.9554V19.9468V19.9381V19.9294V19.9207V19.912V19.9033V19.8946V19.8858V19.877V19.8683V19.8595V19.8506V19.8418V19.833V19.8241V19.8152V19.8063V19.7974V19.7885V19.7796V19.7706V19.7616V19.7527V19.7437V19.7346V19.7256V19.7166V19.7075V19.6985V19.6894V19.6803V19.6712V19.662V19.6529V19.6438V19.6346V19.6254V19.6162V19.607V19.5978V19.5886V19.5793V19.5701V19.5608V19.5515V19.5422V19.5329V19.5236V19.5143V19.5049V19.4956V19.4862V19.4768V19.4675V19.4581V19.4486V19.4392V19.4298V19.4203V19.4109V19.4014V19.3919V19.3824V19.3729V19.3634V19.3539V19.3444V19.3348V19.3253V19.3157V19.3061V19.2965V19.2869V19.2773V19.2677V19.2581V19.2485V19.2388V19.2292V19.2195V19.2098V19.2001V19.1904V19.1807V19.171V19.1613V19.1516V19.1419V19.1321V19.1224V19.1126V19.1028V19.0931V19.0833V19.0735V19.0637V19.0539V19.044V19.0342V19.0244V19.0146V19.0047V18.9949V18.985V18.9751V18.9652V18.9554V18.9455V18.9356V18.9257V18.9158V18.9058V18.8959V18.886V18.8761V18.8661V18.8562V18.8462V18.8363V18.8263V18.8163V18.8064V18.7964V18.7864V18.7764V18.7664V18.7564V18.7464V18.7364V18.7264V18.7163V18.7063V18.6963V18.6863V18.6762V18.6662V18.6561V18.6461V18.636V18.626V18.6159V18.6058V18.5957V18.5857V18.5756V18.5655V18.5554V18.5453V18.5353V18.5252V18.5151V18.505V18.4949V18.4848V18.4746V18.4645V18.4544V18.4443V18.4342V18.4241V18.414V18.4038V18.3937V18.3836V18.3735V18.3633V18.3532V18.3431V18.3329V18.3228V18.3127V18.3025V18.2924V18.2822V18.2721V18.262V18.2518V18.2417V18.2315V18.2214V18.2113V18.2011V18.191V18.1808V18.1707V18.1605V18.1504V18.1403V18.1301V18.12V18.1099V18.0997V18.0896V18.0794V18.0693V18.0592V18.049V18.0389V18.0288V18.0187V18.0085V17.9984V17.9883V17.9782V17.968V17.9579V17.9478V17.9377V17.9276V17.9175V17.9074V17.8973V17.8872V17.8771V17.867V17.8569V17.8468V17.8367V17.8267V17.8166V17.8065V17.7964V17.7864V17.7763V17.7662V17.7562V17.7461V17.7361V17.7261V17.716V17.706V17.696V17.6859V17.6759V17.6659V17.6559V17.6459V17.6359V17.6259V17.6159V17.6059V17.5959V17.586V17.576V17.566V17.5561V17.5461V17.5362V17.5262V17.5163V17.5064V17.4965V17.4865V17.4766V17.4667V17.4568V17.447V17.4371V17.4272V17.4173V17.4075V17.3976V17.3878V17.3779V17.3681V17.3583V17.3485V17.3387V17.3289V17.3191V17.3093V17.2995V17.2898V17.28V17.2703V17.2605V17.2508V17.2411V17.2313V17.2216V17.2119V17.2023V17.1926V17.1829V17.1732V17.1636V17.154V17.1443V17.1347V17.1251V17.1155V17.1059V17.0963V17.0867V17.0772V17.0676V17.0581V17.0486V17.039V17.0295V17.02V17.0105V17.0011V16.9916V16.9821V16.9727V16.9633V16.9538V16.9444V16.935V16.9257V16.9163V16.9069V16.8976V16.8882V16.8789V16.8696V16.8603V16.851V16.8417V16.8325V16.8232V16.814V16.8048V16.7955V16.7863V16.7772V16.768V16.7588V16.7497V16.7405V16.7314V16.7223V16.7132V16.7042V16.6951V16.686V16.677V16.668V16.659V16.65V16.641V16.6321V16.6231V16.6142V16.6053V16.5963V16.5875V16.5786V16.5697V16.5609V16.5521V16.5432V16.5345V16.5257V16.5169V16.5082V16.4994V16.4907V16.482V16.4733V16.4647V16.456V16.4474V16.4388V16.4302V16.4216V16.413V16.4045V16.3959V16.3874V16.3789V16.3704V16.362V16.3535V16.3451V16.3367V16.3283V16.3199V16.3116V16.3032V16.2949V16.2866V16.2783V16.27V16.2618V16.2536V16.2454V16.2372V16.229V16.2208V16.2127V16.2046V16.1965V16.1884V16.1804V16.1723V16.1643V16.1563V16.1483V16.1404V16.1324V16.1245V16.1166V16.1088V16.1009V16.0931V16.0852V16.0775V16.0697V16.0619V16.0542V16.0465V16.0388V16.0311V16.0235V16.0158V16.0082V16.0007V15.9931V15.9856V15.978V15.9705V15.9631V15.9556V15.9482V15.9408V15.9334V15.926V15.9187V15.9114V15.9041V15.8968V15.8896C54.4143 15.3834 54.2035 14.9088 53.8622 14.5674Z" stroke="#10B981" stroke-width="2"/>
<path d="M28.4457 14.5674L28.4402 14.562L28.4347 14.5566C28.0715 14.2045 27.5771 14.0152 27.0731 14.0365C21.753 14.2367 17.6219 16.1814 14.8475 19.7628C12.0993 23.3102 10.7832 28.3337 10.7832 34.5134V47.3174C10.7832 48.5558 11.7849 49.5729 13.0336 49.5729H13.0514H13.0693H13.0873H13.1054H13.1236H13.1419H13.1603H13.1788H13.1974H13.2161H13.2349H13.2538H13.2729H13.292H13.3112H13.3305H13.3499H13.3694H13.3891H13.4088H13.4286H13.4485H13.4685H13.4886H13.5088H13.5291H13.5495H13.57H13.5906H13.6113H13.632H13.6529H13.6738H13.6949H13.716H13.7373H13.7586H13.78H13.8015H13.8231H13.8448H13.8666H13.8884H13.9104H13.9324H13.9546H13.9768H13.9991H14.0215H14.0439H14.0665H14.0892H14.1119H14.1347H14.1576H14.1806H14.2036H14.2268H14.25H14.2733H14.2967H14.3202H14.3438H14.3674H14.3911H14.4149H14.4388H14.4627H14.4868H14.5109H14.535H14.5593H14.5836H14.6081H14.6326H14.6571H14.6818H14.7065H14.7313H14.7561H14.7811H14.8061H14.8311H14.8563H14.8815H14.9068H14.9322H14.9576H14.9831H15.0087H15.0343H15.06H15.0858H15.1117H15.1376H15.1636H15.1896H15.2157H15.2419H15.2681H15.2944H15.3208H15.3473H15.3738H15.4003H15.4269H15.4536H15.4804H15.5072H15.5341H15.561H15.588H15.615H15.6422H15.6693H15.6966H15.7238H15.7512H15.7786H15.8061H15.8336H15.8611H15.8888H15.9165H15.9442H15.972H15.9998H16.0277H16.0557H16.0837H16.1118H16.1399H16.168H16.1962H16.2245H16.2528H16.2812H16.3096H16.3381H16.3666H16.3951H16.4237H16.4524H16.4811H16.5098H16.5386H16.5675H16.5964H16.6253H16.6543H16.6833H16.7123H16.7414H16.7706H16.7998H16.829H16.8583H16.8876H16.9169H16.9463H16.9758H17.0052H17.0348H17.0643H17.0939H17.1235H17.1532H17.1829H17.2126H17.2424H17.2722H17.3021H17.3319H17.3619H17.3918H17.4218H17.4518H17.4819H17.5119H17.542H17.5722H17.6024H17.6326H17.6628H17.6931H17.7234H17.7537H17.784H17.8144H17.8448H17.8753H17.9057H17.9362H17.9667H17.9973H18.0278H18.0584H18.0891H18.1197H18.1504H18.181H18.2118H18.2425H18.2732H18.304H18.3348H18.3656H18.3965H18.4273H18.4582H18.4891H18.52H18.551H18.5819H18.6129H18.6439H18.6749H18.7059H18.7369H18.768H18.799H18.8301H18.8612H18.8923H18.9234H18.9546H18.9857H19.0169H19.048H19.0792H19.1104H19.1416H19.1728H19.204H19.2353H19.2665H19.2977H19.329H19.3603H19.3915H19.4228H19.4541H19.4854H19.5167H19.548H19.5793H19.6106H19.6419H19.6732H19.7045H19.7358H19.7671H19.7985H19.8298H19.8611H19.8924H19.9238H19.9551H19.9864H20.0177H20.049H20.0804H20.1117H20.143H20.1743H20.2056H20.2369H20.2682H20.2995H20.3308H20.3621H20.3933H20.4246H20.4559H20.4871H20.5184H20.5496H20.5808H20.612H20.6432H20.6744H20.7056H20.7368H20.768H20.7991H20.8303H20.8614H20.8925H20.9236H20.9547H20.9858H21.0168H21.0479H21.0789H21.1099H21.1409H21.1719H21.2029H21.2338H21.2647H21.2957H21.3265H21.3574H21.3883H21.4191H21.4499H21.4807H21.5115H21.5422H21.5729H21.6037H21.6343H21.665H21.6956H21.7262H21.7568H21.7874H21.8179H21.8484H21.8789H21.9094H21.9398H21.9702H22.0006H22.0309H22.0612H22.0915H22.1218H22.152H22.1822H22.2124H22.2425H22.2726H22.3027H22.3327H22.3627H22.3927H22.4226H22.4525H22.4824H22.5122H22.542H22.5718H22.6015H22.6312H22.6609H22.6905H22.7201H22.7496H22.7791H22.8086H22.838H22.8674H22.8967H22.926H22.9553H22.9845H23.0137H23.0428H23.0719H23.101H23.13H23.1589H23.1878H23.2167H23.2455H23.2743H23.3031H23.3317H23.3604H23.389H23.4175H23.446H23.4745H23.5029H23.5312H23.5595H23.5878H23.616H23.6441H23.6722H23.7003H23.7282H23.7562H23.7841H23.8119H23.8397H23.8674H23.8951H23.9227H23.9502H23.9777H24.0052H24.0326H24.0599H24.0872H24.1144H24.1415H24.1686H24.1957H24.2227H24.2496H24.2764H24.3032H24.33H24.3566H24.3832H24.4098H24.4363H24.4627H24.489H24.5153H24.5416H24.5677H24.5938H24.6198H24.6458H24.6717H24.6975H24.7233H24.749H24.7746H24.8001H24.8256H24.851H24.8764H24.9017H24.9269H24.952H24.9771H25.002H25.027H25.0518H25.0766H25.1013H25.1259H25.1504H25.1749H25.1993H25.2236H25.2478H25.272H25.2961H25.3201H25.344H25.3679H25.3916H25.4153H25.439H25.4625H25.4859H25.5093H25.5326H25.5558H25.5789H25.602H25.6249H25.6478H25.6706H25.6933H25.7159H25.7385H25.7609H25.7833H25.8056H25.8277H25.8499H25.8719H25.8938H25.9156H25.9374H25.959H25.9806H26.0021H26.0235H26.0448H26.066H26.0871H26.1081H26.1291H26.1499H26.1707H26.1913H26.2119H26.2323H26.2527H26.273H26.2931H26.3132H26.3332H26.3531H26.3729H26.3925H26.4121H26.4316H26.451H26.4703H26.4895H26.5086H26.5276H26.5465H26.5653H26.5839H26.6025H26.621H26.6394H26.6576H26.6758H26.6939H26.7118H26.7297H26.7474C27.9963 49.5729 28.9978 48.5557 28.9978 47.3174V47.3018V47.2861V47.2702V47.2544V47.2384V47.2223V47.2062V47.19V47.1737V47.1574V47.1409V47.1244V47.1078V47.0911V47.0744V47.0575V47.0406V47.0236V47.0066V46.9894V46.9722V46.9549V46.9376V46.9202V46.9027V46.8851V46.8674V46.8497V46.8319V46.814V46.7961V46.7781V46.76V46.7418V46.7236V46.7053V46.6869V46.6685V46.65V46.6314V46.6128V46.5941V46.5753V46.5564V46.5375V46.5185V46.4995V46.4804V46.4612V46.4419V46.4226V46.4033V46.3838V46.3643V46.3447V46.3251V46.3054V46.2856V46.2658V46.2459V46.226V46.2059V46.1859V46.1657V46.1455V46.1253V46.105V46.0846V46.0641V46.0436V46.0231V46.0025V45.9818V45.9611V45.9403V45.9194V45.8985V45.8775V45.8565V45.8355V45.8143V45.7931V45.7719V45.7506V45.7292V45.7078V45.6864V45.6649V45.6433V45.6217V45.6V45.5783V45.5565V45.5347V45.5128V45.4908V45.4688V45.4468V45.4247V45.4026V45.3804V45.3582V45.3359V45.3136V45.2912V45.2687V45.2463V45.2237V45.2012V45.1786V45.1559V45.1332V45.1104V45.0876V45.0648V45.0419V45.0189V44.996V44.9729V44.9499V44.9268V44.9036V44.8804V44.8572V44.8339V44.8106V44.7872V44.7638V44.7403V44.7169V44.6933V44.6698V44.6462V44.6225V44.5988V44.5751V44.5513V44.5275V44.5037V44.4798V44.4559V44.432V44.408V44.384V44.3599V44.3358V44.3117V44.2875V44.2633V44.2391V44.2149V44.1906V44.1662V44.1419V44.1175V44.093V44.0686V44.0441V44.0196V43.995V43.9704V43.9458V43.9212V43.8965V43.8718V43.8471V43.8223V43.7975V43.7727V43.7479V43.723V43.6981V43.6732V43.6482V43.6232V43.5982V43.5732V43.5482V43.5231V43.498V43.4729V43.4477V43.4225V43.3973V43.3721V43.3469V43.3216V43.2963V43.271V43.2457V43.2203V43.1949V43.1695V43.1441V43.1187V43.0932V43.0678V43.0423V43.0168V42.9912V42.9657V42.9401V42.9146V42.889V42.8634V42.8377V42.8121V42.7864V42.7607V42.735V42.7093V42.6836V42.6579V42.6321V42.6064V42.5806V42.5548V42.529V42.5032V42.4774V42.4515V42.4257V42.3998V42.374V42.3481V42.3222V42.2963V42.2704V42.2445V42.2186V42.1926V42.1667V42.1407V42.1148V42.0888V42.0628V42.0369V42.0109V41.9849V41.9589V41.9329V41.9069V41.8809V41.8549V41.8289V41.8028V41.7768V41.7508V41.7248V41.6987V41.6727V41.6467V41.6206V41.5946V41.5686V41.5425V41.5165V41.4904V41.4644V41.4384V41.4123V41.3863V41.3603V41.3342V41.3082V41.2822V41.2562V41.2301V41.2041V41.1781V41.1521V41.1261V41.1001V41.0741V41.0481V41.0222V40.9962V40.9702V40.9443V40.9183V40.8924V40.8664V40.8405V40.8146V40.7887V40.7628V40.7369V40.711V40.6851V40.6593V40.6334V40.6076V40.5818V40.5559V40.5301V40.5043V40.4786V40.4528V40.427V40.4013V40.3756V40.3499V40.3242V40.2985V40.2728V40.2472V40.2215V40.1959V40.1703V40.1447V40.1192V40.0936V40.0681V40.0426V40.0171V39.9916V39.9661V39.9407V39.9153V39.8899V39.8645V39.8391V39.8138V39.7885V39.7632V39.7379V39.7126V39.6874V39.6622V39.637V39.6119V39.5867V39.5616V39.5365V39.5115V39.4864V39.4614V39.4364V39.4115V39.3865V39.3616V39.3367V39.3119V39.2871V39.2623V39.2375V39.2127V39.188V39.1633V39.1387V39.1141V39.0895V39.0649V39.0404V39.0159V38.9914V38.967V38.9426V38.9182V38.8938V38.8695V38.8453V38.821V38.7968V38.7726V38.7485V38.7244V38.7003V38.6763V38.6523V38.6283V38.6044V38.5805V38.5567V38.5329V38.5091V38.4854V38.4617V38.438V38.4144V38.3908V38.3673V38.3438V38.3203V38.2969V38.2735V38.2501V38.2269V38.2036V38.1804V38.1572V38.1341V38.111V38.088V38.065V38.042V38.0191V37.9962V37.9734V37.9506V37.9279V37.9052V37.8826V37.86V37.8375V37.815V37.7925V37.7701V37.7478V37.7255V37.7032V37.681V37.6589V37.6368V37.6147V37.5927V37.5708V37.5489V37.527V37.5052V37.4835V37.4618V37.4401V37.4185V37.397V37.3755V37.3541V37.3327V37.3114V37.2901V37.2689V37.2478V37.2267V37.2056V37.1847V37.1637V37.1429V37.122V37.1013V37.0806V37.06V37.0394V37.0189V36.9984V36.978V36.9577V36.9374V36.9172V36.897V36.8769V36.8569V36.8369V36.817V36.7971V36.7773V36.7576V36.738V36.7184V36.6988V36.6794V36.66V36.6406V36.6213V36.6021V36.583V36.5639V36.5449V36.526V36.5071V36.4883V36.4696V36.4509V36.4323V36.4138V36.3953V36.3769V36.3586V36.3403V36.3222V36.304V36.286V36.268V36.2501V36.2323V36.2146V36.1969V36.1793V36.1617V36.1443V36.1269V36.1096V36.0924V36.0752V36.0581V36.0411V36.0242V36.0073V35.9905V35.9738V35.9572V35.9406V35.9242V35.9078V35.8915V35.8752V35.8591V35.843V35.827V35.8111V35.7952V35.7795V35.7638C28.9978 34.5202 27.991 33.5134 26.7474 33.5134H20.8153C20.5664 29.6173 21.1466 26.9827 22.2067 25.2827C23.3123 23.5097 25.0298 22.6121 27.292 22.4215C28.2601 22.343 28.9978 21.5365 28.9978 20.5709V20.5639V20.5568V20.5496V20.5425V20.5353V20.5282V20.5209V20.5137V20.5065V20.4992V20.4919V20.4845V20.4772V20.4698V20.4624V20.455V20.4476V20.4401V20.4326V20.4251V20.4176V20.4101V20.4025V20.3949V20.3873V20.3797V20.372V20.3643V20.3566V20.3489V20.3412V20.3334V20.3256V20.3178V20.31V20.3022V20.2943V20.2864V20.2785V20.2706V20.2626V20.2547V20.2467V20.2387V20.2307V20.2226V20.2145V20.2065V20.1984V20.1902V20.1821V20.1739V20.1658V20.1576V20.1493V20.1411V20.1329V20.1246V20.1163V20.108V20.0997V20.0913V20.0829V20.0746V20.0662V20.0578V20.0493V20.0409V20.0324V20.0239V20.0154V20.0069V19.9983V19.9898V19.9812V19.9726V19.964V19.9554V19.9468V19.9381V19.9294V19.9207V19.912V19.9033V19.8946V19.8858V19.877V19.8683V19.8595V19.8506V19.8418V19.833V19.8241V19.8152V19.8063V19.7974V19.7885V19.7796V19.7706V19.7616V19.7527V19.7437V19.7346V19.7256V19.7166V19.7075V19.6985V19.6894V19.6803V19.6712V19.662V19.6529V19.6438V19.6346V19.6254V19.6162V19.607V19.5978V19.5886V19.5793V19.5701V19.5608V19.5515V19.5422V19.5329V19.5236V19.5143V19.5049V19.4956V19.4862V19.4768V19.4675V19.4581V19.4486V19.4392V19.4298V19.4203V19.4109V19.4014V19.3919V19.3824V19.3729V19.3634V19.3539V19.3444V19.3348V19.3253V19.3157V19.3061V19.2965V19.2869V19.2773V19.2677V19.2581V19.2485V19.2388V19.2292V19.2195V19.2098V19.2001V19.1904V19.1807V19.171V19.1613V19.1516V19.1419V19.1321V19.1224V19.1126V19.1028V19.0931V19.0833V19.0735V19.0637V19.0539V19.044V19.0342V19.0244V19.0146V19.0047V18.9949V18.985V18.9751V18.9652V18.9554V18.9455V18.9356V18.9257V18.9158V18.9058V18.8959V18.886V18.8761V18.8661V18.8562V18.8462V18.8363V18.8263V18.8163V18.8064V18.7964V18.7864V18.7764V18.7664V18.7564V18.7464V18.7364V18.7264V18.7163V18.7063V18.6963V18.6863V18.6762V18.6662V18.6561V18.6461V18.636V18.626V18.6159V18.6058V18.5957V18.5857V18.5756V18.5655V18.5554V18.5453V18.5353V18.5252V18.5151V18.505V18.4949V18.4848V18.4746V18.4645V18.4544V18.4443V18.4342V18.4241V18.414V18.4038V18.3937V18.3836V18.3735V18.3633V18.3532V18.3431V18.3329V18.3228V18.3127V18.3025V18.2924V18.2822V18.2721V18.262V18.2518V18.2417V18.2315V18.2214V18.2113V18.2011V18.191V18.1808V18.1707V18.1605V18.1504V18.1403V18.1301V18.12V18.1099V18.0997V18.0896V18.0794V18.0693V18.0592V18.049V18.0389V18.0288V18.0187V18.0085V17.9984V17.9883V17.9782V17.968V17.9579V17.9478V17.9377V17.9276V17.9175V17.9074V17.8973V17.8872V17.8771V17.867V17.8569V17.8468V17.8367V17.8267V17.8166V17.8065V17.7964V17.7864V17.7763V17.7662V17.7562V17.7461V17.7361V17.7261V17.716V17.706V17.696V17.6859V17.6759V17.6659V17.6559V17.6459V17.6359V17.6259V17.6159V17.6059V17.5959V17.586V17.576V17.566V17.5561V17.5461V17.5362V17.5262V17.5163V17.5064V17.4965V17.4865V17.4766V17.4667V17.4568V17.447V17.4371V17.4272V17.4173V17.4075V17.3976V17.3878V17.3779V17.3681V17.3583V17.3485V17.3387V17.3289V17.3191V17.3093V17.2995V17.2898V17.28V17.2703V17.2605V17.2508V17.2411V17.2313V17.2216V17.2119V17.2023V17.1926V17.1829V17.1732V17.1636V17.154V17.1443V17.1347V17.1251V17.1155V17.1059V17.0963V17.0867V17.0772V17.0676V17.0581V17.0486V17.039V17.0295V17.02V17.0105V17.0011V16.9916V16.9821V16.9727V16.9633V16.9538V16.9444V16.935V16.9257V16.9163V16.9069V16.8976V16.8882V16.8789V16.8696V16.8603V16.851V16.8417V16.8325V16.8232V16.814V16.8048V16.7955V16.7863V16.7772V16.768V16.7588V16.7497V16.7405V16.7314V16.7223V16.7132V16.7042V16.6951V16.686V16.677V16.668V16.659V16.65V16.641V16.6321V16.6231V16.6142V16.6053V16.5963V16.5875V16.5786V16.5697V16.5609V16.5521V16.5432V16.5345V16.5257V16.5169V16.5082V16.4994V16.4907V16.482V16.4733V16.4647V16.456V16.4474V16.4388V16.4302V16.4216V16.413V16.4045V16.3959V16.3874V16.3789V16.3704V16.362V16.3535V16.3451V16.3367V16.3283V16.3199V16.3116V16.3032V16.2949V16.2866V16.2783V16.27V16.2618V16.2536V16.2454V16.2372V16.229V16.2208V16.2127V16.2046V16.1965V16.1884V16.1804V16.1723V16.1643V16.1563V16.1483V16.1404V16.1324V16.1245V16.1166V16.1088V16.1009V16.0931V16.0852V16.0775V16.0697V16.0619V16.0542V16.0465V16.0388V16.0311V16.0235V16.0158V16.0082V16.0007V15.9931V15.9856V15.978V15.9705V15.9631V15.9556V15.9482V15.9408V15.9334V15.926V15.9187V15.9114V15.9041V15.8968V15.8896C28.9978 15.3834 28.787 14.9088 28.4457 14.5674Z" stroke="#10B981" stroke-width="2"/>
</svg>
