<svg width="61" height="54" viewBox="0 0 61 54" fill="none" xmlns="http://www.w3.org/2000/svg">
<path fill-rule="evenodd" clip-rule="evenodd" d="M60.2805 5.36802C60.2805 3.94401 59.7145 2.57901 58.7085 1.57201C57.7015 0.566 56.3365 0 54.9125 0C44.1434 0 16.4163 0 5.64829 0C4.22429 0 2.85928 0.566 1.85228 1.57201C0.845276 2.57901 0.280273 3.94401 0.280273 5.36802C0.280273 15.1711 0.280273 38.8291 0.280273 48.6322C0.280273 50.0562 0.845276 51.4212 1.85228 52.4282C2.85928 53.4342 4.22429 54.0002 5.64829 54.0002C16.4163 54.0002 44.1434 54.0002 54.9125 54.0002C56.3365 54.0002 57.7015 53.4342 58.7085 52.4282C59.7145 51.4212 60.2805 50.0562 60.2805 48.6322V5.36802ZM58.2805 12V48.6322C58.2805 49.5252 57.9255 50.3822 57.2935 51.0142C56.6625 51.6452 55.8055 52.0002 54.9125 52.0002C44.1434 52.0002 16.4163 52.0002 5.64829 52.0002C4.75429 52.0002 3.89828 51.6452 3.26628 51.0142C2.63528 50.3822 2.28028 49.5252 2.28028 48.6322V12H58.2805ZM54.2805 45.0002C54.2805 44.2042 53.9644 43.4412 53.4015 42.8792C52.8394 42.3162 52.0764 42.0002 51.2804 42.0002C49.5374 42.0002 47.0234 42.0002 45.2804 42.0002C44.4844 42.0002 43.7214 42.3162 43.1594 42.8792C42.5964 43.4412 42.2804 44.2042 42.2804 45.0002L43.2804 46.0002C42.7284 46.0002 42.2804 45.5522 42.2804 45.0002C42.2804 45.7962 42.5964 46.5592 43.1594 47.1212C43.7214 47.6842 44.4844 48.0002 45.2804 48.0002C47.0234 48.0002 49.5374 48.0002 51.2804 48.0002C52.0764 48.0002 52.8394 47.6842 53.4015 47.1212C53.9644 46.5592 54.2805 45.7962 54.2805 45.0002ZM52.2804 45.0002C52.2804 45.2652 52.1754 45.5202 51.9874 45.7072C51.7994 45.8952 51.5454 46.0002 51.2804 46.0002H45.2804C45.0154 46.0002 44.7604 45.8952 44.5734 45.7072C44.3854 45.5202 44.2804 45.2652 44.2804 45.0002C44.2804 45.5522 43.8324 46.0002 43.2804 46.0002L44.2804 45.0002C44.2804 44.7352 44.3854 44.4802 44.5734 44.2932C44.7604 44.1052 45.0154 44.0002 45.2804 44.0002H51.2804C51.5454 44.0002 51.7994 44.1052 51.9874 44.2932C52.1754 44.4802 52.2804 44.7352 52.2804 45.0002ZM34.2804 44.0002H22.2803V43.0002C22.2803 42.4482 21.8323 42.0002 21.2803 42.0002C20.7283 42.0002 20.2803 42.4482 20.2803 43.0002V44.0002H8.2803V43.0002C8.2803 42.4482 7.8323 42.0002 7.2803 42.0002C6.72829 42.0002 6.28029 42.4482 6.28029 43.0002V45.0002V45.0062C6.28329 45.5552 6.73029 46.0002 7.2803 46.0002H35.2804C35.3034 46.0002 35.3274 45.9992 35.3504 45.9982L35.3834 45.9952L35.3894 45.9942C35.6554 45.9652 35.8904 45.8322 36.0514 45.6362L36.0714 45.6122L36.0894 45.5872L36.1074 45.5622L36.1274 45.5322L36.1444 45.5032L36.1624 45.4712L36.1764 45.4442L36.1894 45.4172L36.2014 45.3892L36.2134 45.3612L36.2214 45.3382L36.2294 45.3152L36.2374 45.2912L36.2444 45.2682L36.2504 45.2442L36.2564 45.2202L36.2614 45.1952L36.2654 45.1712L36.2694 45.1462L36.2734 45.1212L36.2754 45.0962L36.2784 45.0642L36.2794 45.0322L36.2804 45.0002V43.0002C36.2804 42.4482 35.8324 42.0002 35.2804 42.0002C34.7284 42.0002 34.2804 42.4482 34.2804 43.0002V44.0002ZM54.2805 37.0001C54.2805 36.2041 53.9644 35.4411 53.4015 34.8791C52.8394 34.3161 52.0764 34.0001 51.2804 34.0001C49.5364 34.0001 47.0214 34.0001 45.2784 34.0001C43.6224 34.0001 42.2804 35.3421 42.2804 36.9981V37.0021C42.2804 38.6581 43.6224 40.0001 45.2784 40.0001C47.0214 40.0001 49.5364 40.0001 51.2804 40.0001C52.0764 40.0001 52.8394 39.6841 53.4015 39.1211C53.9644 38.5591 54.2805 37.7961 54.2805 37.0001ZM52.2804 37.0001C52.2804 37.2651 52.1754 37.5201 51.9874 37.7071C51.7994 37.8951 51.5454 38.0001 51.2804 38.0001H45.2784C44.7274 38.0001 44.2804 37.5531 44.2804 37.0021V36.9981C44.2804 36.4471 44.7274 36.0001 45.2784 36.0001C47.0214 36.0001 49.5364 36.0001 51.2804 36.0001C51.5454 36.0001 51.7994 36.1051 51.9874 36.2931C52.1754 36.4801 52.2804 36.7351 52.2804 37.0001ZM8.0613 35.6251L15.4363 26.4061L24.6553 33.7811C25.0803 34.1211 25.7004 34.0581 26.0484 33.6401L36.0484 21.6401C36.4014 21.2161 36.3444 20.5851 35.9204 20.2321C35.4964 19.8781 34.8654 19.9361 34.5124 20.3601L25.1394 31.6071L15.9053 24.2191C15.4733 23.8741 14.8443 23.9441 14.4993 24.3751L6.49929 34.3751C6.15429 34.8061 6.22429 35.4361 6.65529 35.7811C7.0863 36.1261 7.7163 36.0561 8.0613 35.6251ZM43.2804 30.0001H53.2804C53.8324 30.0001 54.2805 29.5521 54.2805 29.0001C54.2805 28.4481 53.8324 28.0001 53.2804 28.0001H43.2804C42.7284 28.0001 42.2804 28.4481 42.2804 29.0001C42.2804 29.5521 42.7284 30.0001 43.2804 30.0001ZM47.2804 16.0001C44.5204 16.0001 42.2804 18.2401 42.2804 21.0001C42.2804 23.7601 44.5204 26.0001 47.2804 26.0001C50.0394 26.0001 52.2804 23.7601 52.2804 21.0001C52.2804 18.2401 50.0394 16.0001 47.2804 16.0001ZM47.2804 18.0001C48.9364 18.0001 50.2804 19.3441 50.2804 21.0001C50.2804 22.6561 48.9364 24.0001 47.2804 24.0001C45.6244 24.0001 44.2804 22.6561 44.2804 21.0001C44.2804 19.3441 45.6244 18.0001 47.2804 18.0001ZM58.2805 10H2.28028V5.36802C2.28028 4.47502 2.63528 3.61801 3.26628 2.98601C3.89828 2.35501 4.75429 2.00001 5.64829 2.00001C16.4163 2.00001 44.1434 2.00001 54.9125 2.00001C55.8055 2.00001 56.6625 2.35501 57.2935 2.98601C57.9255 3.61801 58.2805 4.47502 58.2805 5.36802V10ZM18.2803 4.00001C17.1763 4.00001 16.2803 4.89602 16.2803 6C16.2803 7.104 17.1763 8 18.2803 8C19.3843 8 20.2803 7.104 20.2803 6C20.2803 4.89602 19.3843 4.00001 18.2803 4.00001ZM12.2803 4.00001C11.1763 4.00001 10.2803 4.89602 10.2803 6C10.2803 7.104 11.1763 8 12.2803 8C13.3843 8 14.2803 7.104 14.2803 6C14.2803 4.89602 13.3843 4.00001 12.2803 4.00001ZM6.28029 4.00001C5.17629 4.00001 4.28029 4.89602 4.28029 6C4.28029 7.104 5.17629 8 6.28029 8C7.3843 8 8.2803 7.104 8.2803 6C8.2803 4.89602 7.3843 4.00001 6.28029 4.00001Z" fill="#0FD895"/>
</svg>
