<svg width="21" height="17" viewBox="0 0 21 17" fill="none" xmlns="http://www.w3.org/2000/svg">
<path d="M0.438506 9.66385C-0.146164 9.01722 -0.146174 7.97395 0.438506 7.32743C2.24994 5.32402 5.78327 1.41638 6.07222 1.09731C6.46222 0.666661 7.10222 0.666661 7.49222 1.09731C7.88222 1.52795 7.88222 2.22361 7.49222 2.65426L4.77551 5.65411C4.24112 6.2442 3.64875 6.7645 3.00801 7.20707L2.66534 7.4437L2.87341 7.67184C3.60716 7.48566 4.35839 7.39136 5.11283 7.39136H19.0347C19.587 7.39136 20.0347 7.88572 20.0347 8.49559C20.0347 9.10545 19.587 9.59981 19.0347 9.59981H5.11283C4.35839 9.59981 3.60716 9.50551 2.87341 9.31934L2.66534 9.54747L3.00801 9.7841C3.64875 10.2267 4.24112 10.747 4.77551 11.3371L7.49222 14.3369C7.88222 14.7676 7.88222 15.4632 7.49222 15.8939C7.10222 16.3245 6.46222 16.3245 6.07222 15.8939C5.78327 15.5748 2.24994 11.6671 0.438506 9.66385Z" fill="#0FD895"/>
</svg>
