<svg width="61" height="60" viewBox="0 0 61 60" fill="none" xmlns="http://www.w3.org/2000/svg">
<path fill-rule="evenodd" clip-rule="evenodd" d="M22.3049 37.7171C21.2369 37.9031 20.1388 38.0001 19.0187 38.0001C8.52138 38.0001 0 29.4861 0 19.0001C0 8.51403 8.52138 0 19.0187 0C29.5151 0 38.0374 8.51403 38.0374 19.0001C38.0374 20.1201 37.9394 21.2171 37.7532 22.2831C38.8202 22.0971 39.9193 22.0001 41.0404 22.0001C51.5367 22.0001 60.0591 30.5141 60.0591 41.0002C60.0591 51.4862 51.5367 60.0002 41.0404 60.0002C30.5431 60.0002 22.0216 51.4862 22.0216 41.0002C22.0216 39.8801 22.1187 38.7831 22.3049 37.7171ZM41.0404 24.0001C50.4316 24.0001 58.0572 31.6171 58.0572 41.0002C58.0572 50.3832 50.4316 58.0002 41.0404 58.0002C31.6482 58.0002 24.0236 50.3832 24.0236 41.0002C24.0236 31.6171 31.6482 24.0001 41.0404 24.0001ZM36.0355 34.0001H33.0325C32.48 34.0001 32.0316 33.5521 32.0316 33.0001C32.0316 32.4481 32.48 32.0001 33.0325 32.0001H36.0355V29.0001C36.0355 28.4481 36.4839 28.0001 37.0365 28.0001C37.588 28.0001 38.0374 28.4481 38.0374 29.0001V32.0001H40.0394V29.0001C40.0394 28.4481 40.4878 28.0001 41.0404 28.0001C41.5919 28.0001 42.0414 28.4481 42.0414 29.0001V32.0001H43.0444C45.8071 32.0001 48.0473 34.2381 48.0473 36.9981V37.0021C48.0473 38.2721 47.5728 39.4311 46.792 40.3131C48.6939 41.0212 50.0492 42.8512 50.0492 44.9982V45.0002C50.0492 46.3262 49.5217 47.5982 48.5828 48.5362C47.6439 49.4732 46.3716 50.0002 45.0443 50.0002H42.0414V53.0002C42.0414 53.5522 41.5919 54.0002 41.0404 54.0002C40.4878 54.0002 40.0394 53.5522 40.0394 53.0002V50.0002H38.0374V53.0002C38.0374 53.5522 37.588 54.0002 37.0365 54.0002C36.4839 54.0002 36.0355 53.5522 36.0355 53.0002V50.0002H33.0325C32.48 50.0002 32.0316 49.5522 32.0316 49.0002C32.0316 48.4482 32.48 48.0002 33.0325 48.0002H36.0355V34.0001ZM38.0374 48.0002V42.0002H45.0463C46.7029 42.0002 48.0473 43.3422 48.0473 44.9982V45.0002C48.0473 45.7962 47.73 46.5592 47.1674 47.1212C46.6038 47.6842 45.8401 48.0002 45.0443 48.0002H38.0374ZM43.0444 40.0001H38.0374V34.0001H43.0444C44.701 34.0001 46.0453 35.3421 46.0453 36.9981V37.0021C46.0453 38.6581 44.701 40.0001 43.0444 40.0001ZM35.6101 22.7871C35.8883 21.5691 36.0355 20.3011 36.0355 19.0001C36.0355 9.61703 28.4099 2.00001 19.0187 2.00001C9.62647 2.00001 2.00197 9.61703 2.00197 19.0001C2.00197 28.3831 9.62647 36.0001 19.0187 36.0001C20.321 36.0001 21.5902 35.8531 22.8084 35.5761C24.6352 29.4481 29.476 24.6121 35.6101 22.7871ZM18.0177 10H17.1449L16.4882 10.027L15.6764 10.181L14.9557 10.442L14.242 10.837L13.6314 11.316L13.0999 11.885L12.6445 12.563L12.3362 13.222L12.14 13.8691L12.0309 14.5501L12.0118 15.0021C12.0118 17.7621 14.251 20.0001 17.0147 20.0001H21.0207C21.8164 20.0001 22.5802 20.3161 23.1437 20.8791C23.7063 21.4411 24.0236 22.2041 24.0236 23.0001V23.0021C24.0236 24.6451 22.7003 25.9791 21.0607 26.0001H17.0167C16.22 26.0001 15.4562 25.6841 14.8927 25.1211C14.3301 24.5591 14.0138 23.7961 14.0138 23.0001V23.0021L14.0108 22.9371C13.9968 22.6371 13.8747 22.4321 13.7205 22.2931C13.5393 22.1121 13.2891 22.0001 13.0128 22.0001C13.0128 22.0001 12.0319 22.0611 12.0118 22.9741V23.0021C12.0118 25.7621 14.251 28.0001 17.0147 28.0001H18.0177V31.0001C18.0177 31.5521 18.4662 32.0001 19.0187 32.0001C19.5702 32.0001 20.0197 31.5521 20.0197 31.0001V27.9991H21.1027L21.8034 27.9391L22.5682 27.7571L23.2999 27.4531L23.9906 27.0261L24.5772 26.5181L25.0826 25.9231L25.5051 25.2231L25.7813 24.5471L25.9465 23.8871L26.0236 23.1311L26.0256 22.9981C26.0256 20.2381 23.7854 18.0001 21.0227 18.0001H17.0167C16.22 18.0001 15.4562 17.6841 14.8927 17.1211C14.3301 16.5591 14.0138 15.7961 14.0138 15.0001V14.9981C14.0138 13.355 15.3361 12.021 16.9757 12H21.0207C21.8164 12 22.5802 12.316 23.1437 12.879C23.7063 13.441 24.0236 14.2041 24.0236 15.0001V14.9981L24.0256 15.0631C24.0406 15.3631 24.1617 15.5681 24.3159 15.7071C24.4971 15.8881 24.7473 16.0001 25.0246 16.0001C25.0246 16.0001 26.0046 15.9391 26.0246 15.0261L26.0256 14.9981C26.0256 12.238 23.7854 10 21.0227 10H20.0197V7.00003C20.0197 6.44802 19.5702 6.00002 19.0187 6.00002C18.4662 6.00002 18.0177 6.44802 18.0177 7.00003V10Z" fill="#0FD895"/>
</svg>
