<svg width="58" height="46" viewBox="0 0 58 46" fill="none" xmlns="http://www.w3.org/2000/svg">
<path fill-rule="evenodd" clip-rule="evenodd" d="M2.55801 14.1028C2.49501 14.1338 2.43501 14.1718 2.38001 14.2148L2.36601 14.2268L2.34101 14.2478L2.32801 14.2588L2.30901 14.2768L2.28301 14.3028L2.26801 14.3188L2.25201 14.3368L2.24401 14.3448L2.23301 14.3578C2.09501 14.5228 2.00901 14.7338 2.00101 14.9639L2.00001 14.9838C2.00001 14.9888 2.00001 14.9948 2.00001 14.9998V26.1709C0.835003 26.5819 0 27.6939 0 28.9999V38.9999C0 39.5519 0.448002 39.9999 1.00001 39.9999H5.00002C5.55202 39.9999 6.00002 39.5519 6.00002 38.9999V28.9979C6.00002 27.6919 5.16502 26.5809 4.00002 26.1699V16.6449L12.0001 20.7929V36.7219C12.0001 38.5419 12.9391 40.2339 14.4841 41.1969L14.4871 41.1989C24.8301 47.586 35.1652 47.564 45.5002 41.1849L45.5022 41.1839C47.0472 40.2249 47.9862 38.5349 47.9862 36.7169C47.9992 32.2439 48.0002 22.5949 48.0002 20.7929L57.4603 15.8879C57.7923 15.7159 58.0003 15.3729 58.0003 14.9998C58.0003 14.6268 57.7923 14.2838 57.4603 14.1118L30.4602 0.11175C30.1722 -0.03725 29.8282 -0.03725 29.5402 0.11175L2.55801 14.1028ZM14.0001 21.8299V36.7219C14.0001 37.8509 14.5821 38.9009 15.5401 39.4989C25.1811 45.452 34.8142 45.43 44.4482 39.4839C45.4042 38.8899 45.9862 37.8439 45.9862 36.7169V36.7139C45.9972 32.8069 45.9992 24.9579 46.0002 21.8299L30.4602 29.8879C30.1722 30.0369 29.8282 30.0369 29.5402 29.8879L14.0001 21.8299ZM4.00002 28.9979V37.9999H2.00001V28.9999C2.00001 28.4479 2.44801 27.9999 3.00001 27.9999H3.00201C3.55302 27.9999 4.00002 28.4469 4.00002 28.9979ZM7.10103 13.9998H29.0001C29.5522 13.9998 30.0002 14.4478 30.0002 14.9998C30.0002 15.5519 29.5522 15.9999 29.0001 15.9999H7.10103L30.0002 27.8739L54.8282 14.9998L30.0002 2.12576L7.10103 13.9998Z" fill="#0FD895"/>
</svg>
