<svg width="60" height="60" viewBox="0 0 60 60" fill="none" xmlns="http://www.w3.org/2000/svg">
<path fill-rule="evenodd" clip-rule="evenodd" d="M16.5518 38.5714H14.8625C13.5104 38.5714 12.4138 39.7071 12.4138 41.1085V46.7486C12.4138 48.15 13.5104 49.2857 14.8625 49.2857H16.5518V58.9286C16.5518 59.52 17.0152 60 17.5862 60C18.1573 60 18.6207 59.52 18.6207 58.9286V49.2857H20.309C21.6621 49.2857 22.7586 48.15 22.7586 46.7486V41.1085C22.7586 39.7071 21.6621 38.5714 20.309 38.5714H18.6207V26.7857C18.6207 26.1943 18.1573 25.7143 17.5862 25.7143C17.0152 25.7143 16.5518 26.1943 16.5518 26.7857V38.5714ZM53.7931 15.0001H52.1038C50.7518 15.0001 49.6552 16.1358 49.6552 17.5372V44.6058C49.6552 46.0072 50.7518 47.1429 52.1038 47.1429H53.7931V56.7857C53.7931 57.3771 54.2566 57.8571 54.8276 57.8571C55.3986 57.8571 55.8621 57.3771 55.8621 56.7857V47.1429H57.5504C58.9035 47.1429 60 46.0072 60 44.6058V17.5372C60 16.1358 58.9035 15.0001 57.5504 15.0001H55.8621V5.35715C55.8621 4.76572 55.3986 4.28571 54.8276 4.28571C54.2566 4.28571 53.7931 4.76572 53.7931 5.35715V15.0001ZM4.13793 27.8571H2.44862C1.09655 27.8571 0 28.9929 0 30.3943C0 34.6211 0 46.8075 0 51.0343C0 52.4357 1.09655 53.5714 2.44862 53.5714H4.13793V56.7857C4.13793 57.3771 4.60138 57.8571 5.17241 57.8571C5.74345 57.8571 6.2069 57.3771 6.2069 56.7857V53.5714H7.89517C9.24828 53.5714 10.3448 52.4357 10.3448 51.0343V30.3943C10.3448 28.9929 9.24828 27.8571 7.89517 27.8571H6.2069V20.3572C6.2069 19.7657 5.74345 19.2858 5.17241 19.2858C4.60138 19.2858 4.13793 19.7657 4.13793 20.3572V27.8571ZM28.9655 20.8929H27.2762C25.9241 20.8929 24.8276 22.0286 24.8276 23.43C24.8276 26.7568 24.8276 34.8503 24.8276 38.1771C24.8276 39.5785 25.9241 40.7142 27.2762 40.7142H28.9655V50.3572C28.9655 50.9486 29.429 51.4286 30 51.4286C30.571 51.4286 31.0345 50.9486 31.0345 50.3572V40.7142H32.7227C34.0758 40.7142 35.1724 39.5785 35.1724 38.1771C35.1724 34.8503 35.1724 26.7568 35.1724 23.43C35.1724 22.0286 34.0758 20.8929 32.7227 20.8929H31.0345V18.2143C31.0345 17.6229 30.571 17.1429 30 17.1429C29.429 17.1429 28.9655 17.6229 28.9655 18.2143V20.8929ZM8.27587 30.3943V51.0343C8.27587 51.2518 8.10517 51.4286 7.89517 51.4286H2.44862C2.23862 51.4286 2.06896 51.2518 2.06896 51.0343V30.3943C2.06896 30.1768 2.23862 30 2.44862 30H7.89517C8.10517 30 8.27587 30.1768 8.27587 30.3943ZM20.6897 41.1075V46.7486C20.6897 46.9661 20.519 47.1429 20.309 47.1429H14.8625C14.6525 47.1429 14.4828 46.9661 14.4828 46.7497V41.1085C14.4828 40.891 14.6525 40.7142 14.8625 40.7142H20.309C20.519 40.7142 20.6897 40.891 20.6897 41.1075ZM57.931 17.5361V44.6058C57.931 44.8233 57.7604 45.0001 57.5504 45.0001H52.1038C51.8938 45.0001 51.7242 44.8233 51.7242 44.6068V17.5372C51.7242 17.3197 51.8938 17.1429 52.1038 17.1429H57.5504C57.7604 17.1429 57.931 17.3197 57.931 17.5361ZM41.3793 6.42857H39.69C38.3379 6.42857 37.2414 7.56429 37.2414 8.96568C37.2414 12.5507 37.2414 21.735 37.2414 25.32C37.2414 26.7214 38.3379 27.8571 39.69 27.8571H41.3793V41.7857C41.3793 42.3771 41.8427 42.8571 42.4139 42.8571C42.9849 42.8571 43.4483 42.3771 43.4483 41.7857V27.8571H45.1366C46.4897 27.8571 47.5862 26.7214 47.5862 25.32C47.5862 21.735 47.5862 12.5507 47.5862 8.96568C47.5862 7.56429 46.4897 6.42857 45.1366 6.42857H43.4483V1.07142C43.4483 0.479998 42.9849 0 42.4139 0C41.8427 0 41.3793 0.479998 41.3793 1.07142V6.42857ZM33.1034 23.43C33.1034 26.7568 33.1034 34.8503 33.1034 38.1771C33.1034 38.3946 32.9327 38.5714 32.7227 38.5714H27.2762C27.0662 38.5714 26.8966 38.3946 26.8966 38.1771C26.8966 34.8503 26.8966 26.7568 26.8966 23.43C26.8966 23.2125 27.0662 23.0357 27.2762 23.0357H32.7227C32.9327 23.0357 33.1034 23.2125 33.1034 23.43ZM45.5173 8.96568C45.5173 12.5507 45.5173 21.735 45.5173 25.32C45.5173 25.5375 45.3466 25.7143 45.1366 25.7143H39.69C39.48 25.7143 39.3103 25.5375 39.3103 25.32C39.3103 21.735 39.3103 12.5507 39.3103 8.96568C39.3103 8.74818 39.48 8.5714 39.69 8.5714H45.1366C45.3466 8.5714 45.5173 8.74818 45.5173 8.96568Z" fill="#0FD895"/>
</svg>
