<svg width="21" height="20" viewBox="0 0 21 20" fill="none" xmlns="http://www.w3.org/2000/svg">
<path d="M10.5494 19.935C9.23337 19.935 7.99097 19.683 6.82297 19.1782C5.68232 18.6923 4.64505 17.9928 3.76697 17.1174C2.89164 16.2393 2.19216 15.2021 1.70617 14.0614C1.19981 12.8847 0.942158 11.6161 0.949366 10.335C0.949366 9.00864 1.20137 7.76384 1.70617 6.60064C2.1936 5.46315 2.89296 4.42876 3.76697 3.55264C4.64507 2.67733 5.68234 1.97785 6.82297 1.49184C7.99097 0.98784 9.23337 0.73584 10.5494 0.73584C11.8758 0.73584 13.1206 0.98784 14.2838 1.49264C15.4462 1.99664 16.4622 2.68464 17.3318 3.55344C18.2058 4.42956 18.9051 5.46395 19.3926 6.60144C19.8966 7.76464 20.1494 9.00944 20.1494 10.3358C20.1566 11.6169 19.8989 12.8855 19.3926 14.0622C18.9066 15.2029 18.2071 16.2401 17.3318 17.1182C16.4557 17.9923 15.4213 18.6916 14.2838 19.179C13.1206 19.683 11.8758 19.935 10.5494 19.935ZM10.5494 18.3974C11.0439 17.7474 11.4797 17.0549 11.8518 16.3278C12.2038 15.6318 12.491 14.8718 12.7126 14.0462H8.38617C8.62057 14.8974 8.91097 15.671 9.25737 16.367C9.60297 17.063 10.0334 17.7398 10.5494 18.3974ZM8.59257 18.1198C8.18286 17.5238 7.83316 16.8887 7.54857 16.2238C7.24234 15.5217 7.00185 14.7927 6.83017 14.0462H3.40217C3.91752 15.0734 4.6502 15.9762 5.54937 16.6918C6.43715 17.4009 7.47986 17.8901 8.59257 18.1198ZM12.5062 18.1198C13.6189 17.8902 14.6616 17.4009 15.5494 16.6918C16.4484 15.9764 17.1811 15.0739 17.6966 14.047H14.2694C14.067 14.7939 13.8103 15.5249 13.5014 16.2342C13.1934 16.9422 12.8606 17.5702 12.5062 18.1198ZM2.76617 12.531H6.52297C6.45897 12.155 6.41337 11.787 6.38457 11.4262C6.32722 10.6999 6.32722 9.97018 6.38457 9.24384C6.41337 8.88304 6.45977 8.51504 6.52297 8.13984H2.76617C2.46261 9.21936 2.38634 10.3501 2.54217 11.4606C2.59497 11.831 2.66937 12.1878 2.76617 12.531ZM8.03817 12.531H13.0606C13.1837 11.8056 13.2439 11.0709 13.2406 10.335C13.2437 9.5992 13.1832 8.86446 13.0598 8.13904H8.03897C7.91587 8.86449 7.85564 9.59922 7.85897 10.335C7.85591 11.0709 7.9164 11.8056 8.03977 12.531H8.03817ZM14.5758 12.531H18.3326C18.636 11.4515 18.7122 10.3208 18.5566 9.21024C18.5066 8.84846 18.4317 8.49055 18.3326 8.13904H14.5758C14.6398 8.51504 14.6854 8.88304 14.7142 9.24384C14.7715 9.97018 14.7715 10.6999 14.7142 11.4262C14.6854 11.787 14.639 12.1558 14.5758 12.531ZM14.2686 6.62304H17.6966C17.1566 5.56064 16.4454 4.67904 15.5638 3.97824C14.6822 3.27744 13.663 2.79824 12.5062 2.54064C12.8934 3.12864 13.2382 3.77184 13.5398 4.47024C13.8422 5.16864 14.0846 5.88624 14.2686 6.62304ZM8.38617 6.62304H12.7126C12.4929 5.8183 12.1964 5.03657 11.827 4.28864C11.4718 3.57664 11.0454 2.90464 10.5494 2.27264C10.0534 2.90464 9.62697 3.57664 9.27177 4.28864C8.91577 5.00064 8.62057 5.77824 8.38617 6.62304ZM3.40217 6.62304H6.82937C7.01337 5.88624 7.25577 5.16864 7.55737 4.47024C7.85977 3.77184 8.20457 3.12864 8.59177 2.54064C7.42857 2.79824 6.40777 3.27904 5.52937 3.98304C4.65017 4.68704 3.94217 5.56704 3.40217 6.62304Z" fill="white"/>
</svg>
