<svg width="220" height="32" viewBox="0 0 220 32" fill="none" xmlns="http://www.w3.org/2000/svg">
<path d="M193.731 29.0658V27.1281H191.558C190.943 27.1281 190.427 26.9421 190.011 26.57C189.596 26.198 189.387 25.7381 189.386 25.1904V5.81317C189.386 5.26415 189.594 4.80426 190.011 4.43351C190.429 4.06276 190.944 3.87674 191.558 3.87545H193.731V1.93773C193.731 1.38871 193.939 0.928821 194.356 0.558071C194.773 0.18732 195.289 0.0012985 195.903 6.68179e-06C196.517 -0.00128513 197.033 0.184736 197.452 0.558071C197.871 0.931405 198.078 1.39129 198.076 1.93773V3.87545H200.248C200.863 3.87545 201.38 4.06147 201.797 4.43351C202.214 4.80556 202.422 5.26544 202.42 5.81317V25.1904C202.42 25.7394 202.212 26.1999 201.795 26.572C201.378 26.944 200.862 27.1294 200.248 27.1281H198.076V29.0658C198.076 29.6148 197.867 30.0754 197.45 30.4474C197.033 30.8195 196.517 31.0048 195.903 31.0035C195.289 31.0023 194.773 30.8162 194.356 30.4455C193.939 30.0747 193.731 29.6148 193.731 29.0658ZM193.731 23.2527H198.076V7.75089H193.731V23.2527ZM211.11 29.0658V21.3149H208.938C208.322 21.3149 207.807 21.1289 207.391 20.7569C206.975 20.3848 206.767 19.9249 206.765 19.3772V9.68861C206.765 9.13959 206.974 8.67971 207.391 8.30896C207.808 7.9382 208.324 7.75218 208.938 7.75089H211.11V1.93773C211.11 1.38871 211.319 0.928821 211.736 0.558071C212.153 0.18732 212.669 0.0012985 213.283 6.68179e-06C213.897 -0.00128513 214.413 0.184736 214.832 0.558071C215.25 0.931405 215.458 1.39129 215.455 1.93773V7.75089H217.628C218.243 7.75089 218.759 7.93691 219.177 8.30896C219.594 8.681 219.801 9.14088 219.8 9.68861V19.3772C219.8 19.9262 219.591 20.3868 219.174 20.7588C218.757 21.1309 218.242 21.3162 217.628 21.3149H215.455V29.0658C215.455 29.6148 215.247 30.0754 214.829 30.4474C214.412 30.8195 213.897 31.0048 213.283 31.0035C212.669 31.0023 212.153 30.8162 211.736 30.4455C211.319 30.0747 211.11 29.6148 211.11 29.0658ZM211.11 17.4395H215.455V11.6263H211.11V17.4395Z" fill="#12B17D"/>
<path d="M6.84321 25.8363V8.59212H0V6.16454H16.5058V8.59212H9.66262V25.8363H6.84321Z" fill="white"/>
<path d="M16.456 25.8363V12.2195H19.1385V14.6471C19.832 13.0287 21.2736 12.1265 23.4635 11.9405L24.3668 11.8847L24.5584 14.2844L22.8886 14.4518C20.4616 14.6936 19.248 15.9679 19.248 18.2745V25.8363H16.456Z" fill="white"/>
<path d="M30.8039 26.0874C29.8732 26.0874 29.0429 25.9014 28.3129 25.5294C27.583 25.1573 26.999 24.6551 26.5611 24.0226C26.1414 23.3901 25.9315 22.6739 25.9315 21.874C25.9315 20.8695 26.1779 20.0789 26.6706 19.5023C27.1815 18.9256 28.0118 18.5071 29.1615 18.2466C30.3294 17.9862 31.8988 17.856 33.8696 17.856H34.8003V17.1305C34.8003 16.0702 34.5813 15.3075 34.1434 14.8424C33.7054 14.3774 32.9846 14.1449 31.9809 14.1449C31.2145 14.1449 30.448 14.2658 29.6816 14.5076C28.9151 14.7308 28.1305 15.0936 27.3275 15.5958L26.479 13.6147C27.1724 13.1124 28.0392 12.7125 29.0794 12.4149C30.1195 12.1172 31.1141 11.9684 32.063 11.9684C33.8879 11.9684 35.2383 12.4149 36.1142 13.3078C36.9901 14.1821 37.4281 15.5586 37.4281 17.4374V25.8363H34.8277V23.5761C34.4992 24.3574 33.9882 24.9713 33.2948 25.4177C32.6014 25.8642 31.771 26.0874 30.8039 26.0874ZM31.3513 24.0784C32.3367 24.0784 33.1579 23.725 33.8149 23.0181C34.4718 22.3112 34.8003 21.4183 34.8003 20.3394V19.586H33.897C32.5649 19.586 31.5156 19.6511 30.7491 19.7813C30.0009 19.9115 29.4626 20.1347 29.1341 20.451C28.8239 20.7486 28.6688 21.1672 28.6688 21.7066C28.6688 22.4135 28.906 22.9902 29.3805 23.4366C29.8549 23.8645 30.5119 24.0784 31.3513 24.0784Z" fill="white"/>
<path d="M46.3273 26.0874C45.1594 26.0874 44.1283 25.8084 43.2341 25.2503C42.3582 24.6737 41.6739 23.8552 41.1812 22.7948C40.6885 21.7345 40.4421 20.4789 40.4421 19.0279C40.4421 17.5769 40.6885 16.3306 41.1812 15.2889C41.6739 14.2286 42.3582 13.4101 43.2341 12.8334C44.1101 12.2567 45.1411 11.9684 46.3273 11.9684C47.3309 11.9684 48.2251 12.1916 49.0098 12.6381C49.7945 13.0845 50.3785 13.6891 50.7617 14.4518V6.16454H53.5263V25.8363H50.8164V23.4645C50.4332 24.283 49.8401 24.9248 49.0372 25.3898C48.2525 25.8549 47.3492 26.0874 46.3273 26.0874ZM47.039 23.911C48.1704 23.911 49.0828 23.4924 49.7762 22.6553C50.4697 21.8182 50.8164 20.6091 50.8164 19.0279C50.8164 17.4467 50.4697 16.2469 49.7762 15.4284C49.0828 14.5913 48.1704 14.1728 47.039 14.1728C45.8893 14.1728 44.9677 14.5913 44.2743 15.4284C43.5809 16.2469 43.2341 17.4467 43.2341 19.0279C43.2341 20.6091 43.5809 21.8182 44.2743 22.6553C44.9677 23.4924 45.8893 23.911 47.039 23.911Z" fill="white"/>
<path d="M57.162 9.06647V6.13664H60.392V9.06647H57.162ZM57.4084 25.8363V12.2195H60.173V25.8363H57.4084Z" fill="white"/>
<path d="M64.0645 25.8363V12.2195H66.747V14.4797C67.2032 13.6612 67.8237 13.038 68.6083 12.6102C69.4113 12.1823 70.3055 11.9684 71.2909 11.9684C74.4479 11.9684 76.0264 13.7914 76.0264 17.4374V25.8363H73.2617V17.6049C73.2617 16.4329 73.0336 15.5772 72.5774 15.0378C72.1394 14.4983 71.446 14.2286 70.4971 14.2286C69.3839 14.2286 68.4897 14.5913 67.8145 15.3168C67.1576 16.0237 66.8291 16.9631 66.8291 18.135V25.8363H64.0645Z" fill="white"/>
<path d="M85.8853 31.11C84.6809 31.11 83.5586 30.9612 82.5185 30.6635C81.4783 30.3845 80.5567 29.9381 79.7538 29.3242L80.6024 27.3152C81.4053 27.8732 82.2265 28.2825 83.0659 28.5429C83.9053 28.8033 84.7813 28.9335 85.6937 28.9335C88.2485 28.9335 89.5259 27.6314 89.5259 25.0271V22.8786C89.1427 23.6971 88.5405 24.3388 87.7193 24.8039C86.9164 25.2689 86.0131 25.5015 85.0094 25.5015C83.805 25.5015 82.7557 25.2224 81.8615 24.6644C80.9673 24.0877 80.2739 23.2971 79.7812 22.2926C79.2885 21.2695 79.0421 20.0789 79.0421 18.721C79.0421 17.3816 79.2885 16.2097 79.7812 15.2052C80.2739 14.1821 80.9673 13.3915 81.8615 12.8334C82.7557 12.2567 83.805 11.9684 85.0094 11.9684C86.0313 11.9684 86.9437 12.2009 87.7467 12.666C88.5496 13.131 89.1427 13.7728 89.5259 14.5913V12.2195H92.2084V24.6923C92.2084 26.8315 91.6701 28.4313 90.5934 29.4916C89.5168 30.5705 87.9474 31.11 85.8853 31.11ZM85.6663 23.2971C86.8342 23.2971 87.7649 22.8879 88.4584 22.0694C89.1518 21.2509 89.4985 20.1347 89.4985 18.721C89.4985 17.3072 89.1518 16.2004 88.4584 15.4005C87.7649 14.582 86.8342 14.1728 85.6663 14.1728C84.4984 14.1728 83.5677 14.582 82.8743 15.4005C82.1809 16.2004 81.8341 17.3072 81.8341 18.721C81.8341 20.1347 82.1809 21.2509 82.8743 22.0694C83.5677 22.8879 84.4984 23.2971 85.6663 23.2971Z" fill="white"/>
<path d="M103.58 25.8363V6.16454H111.628C113.635 6.16454 115.186 6.62029 116.281 7.5318C117.395 8.4247 117.951 9.68034 117.951 11.2987C117.951 12.359 117.677 13.2706 117.13 14.0332C116.582 14.7959 115.834 15.354 114.885 15.7074C115.999 16.0051 116.865 16.5538 117.486 17.3537C118.106 18.1536 118.416 19.1674 118.416 20.3952C118.416 22.1438 117.842 23.4924 116.692 24.4411C115.561 25.3712 113.982 25.8363 111.956 25.8363H103.58ZM106.318 14.7587H111.19C113.854 14.7587 115.186 13.6984 115.186 11.5778C115.186 9.45712 113.854 8.3968 111.19 8.3968H106.318V14.7587ZM106.318 23.604H111.628C114.311 23.604 115.652 22.4972 115.652 20.2836C115.652 18.0885 114.311 16.991 111.628 16.991H106.318V23.604Z" fill="white"/>
<path d="M121.938 25.8363V12.2195H124.62V14.6471C125.314 13.0287 126.755 12.1265 128.945 11.9405L129.848 11.8847L130.04 14.2844L128.37 14.4518C125.943 14.6936 124.73 15.9679 124.73 18.2745V25.8363H121.938Z" fill="white"/>
<path d="M137.765 26.0874C136.415 26.0874 135.247 25.7991 134.261 25.2224C133.276 24.6458 132.509 23.8366 131.962 22.7948C131.433 21.7345 131.168 20.4789 131.168 19.0279C131.168 17.5769 131.433 16.3306 131.962 15.2889C132.509 14.2286 133.276 13.4101 134.261 12.8334C135.247 12.2567 136.415 11.9684 137.765 11.9684C139.079 11.9684 140.229 12.2567 141.214 12.8334C142.199 13.4101 142.966 14.2286 143.513 15.2889C144.061 16.3306 144.334 17.5769 144.334 19.0279C144.334 20.4789 144.061 21.7345 143.513 22.7948C142.966 23.8366 142.199 24.6458 141.214 25.2224C140.229 25.7991 139.079 26.0874 137.765 26.0874ZM137.765 23.911C138.896 23.911 139.809 23.4924 140.502 22.6553C141.196 21.8182 141.542 20.6091 141.542 19.0279C141.542 17.4467 141.196 16.2469 140.502 15.4284C139.809 14.5913 138.896 14.1728 137.765 14.1728C136.615 14.1728 135.694 14.5913 135 15.4284C134.307 16.2469 133.96 17.4467 133.96 19.0279C133.96 20.6091 134.307 21.8182 135 22.6553C135.694 23.4924 136.615 23.911 137.765 23.911Z" fill="white"/>
<path d="M147.439 25.8363V6.16454H150.204V18.1629H150.259L156.062 12.2195H159.483L153.078 18.7768L159.976 25.8363H156.527L150.259 19.6139H150.204V25.8363H147.439Z" fill="white"/>
<path d="M167.528 26.0874C165.338 26.0874 163.614 25.4643 162.354 24.2179C161.095 22.953 160.466 21.2323 160.466 19.0558C160.466 17.6607 160.739 16.4329 161.287 15.3726C161.853 14.2937 162.628 13.4566 163.614 12.8613C164.599 12.266 165.73 11.9684 167.008 11.9684C168.851 11.9684 170.302 12.573 171.36 13.7821C172.418 14.9726 172.948 16.6189 172.948 18.721V19.6697H163.148C163.349 22.4972 164.818 23.911 167.555 23.911C168.322 23.911 169.07 23.7901 169.8 23.5482C170.548 23.3064 171.251 22.9065 171.907 22.3484L172.729 24.3016C172.126 24.8597 171.351 25.2968 170.402 25.6131C169.453 25.9293 168.495 26.0874 167.528 26.0874ZM167.117 13.9495C165.968 13.9495 165.055 14.3123 164.38 15.0378C163.705 15.7632 163.294 16.7306 163.148 17.9397H170.621C170.566 16.6747 170.238 15.6981 169.636 15.0099C169.033 14.303 168.194 13.9495 167.117 13.9495Z" fill="white"/>
<path d="M175.962 25.8363V12.2195H178.644V14.6471C179.338 13.0287 180.779 12.1265 182.969 11.9405L183.872 11.8847L184.064 14.2844L182.394 14.4518C179.967 14.6936 178.754 15.9679 178.754 18.2745V25.8363H175.962Z" fill="white"/>
</svg>
