<svg width="25" height="26" viewBox="0 0 25 26" fill="none" xmlns="http://www.w3.org/2000/svg">
<path fill-rule="evenodd" clip-rule="evenodd" d="M12.4896 0.804688C5.74524 0.804688 0.305664 6.27256 0.305664 13.0024C0.305664 19.7323 5.74524 25.2005 12.4896 25.2005C19.234 25.2005 24.6735 19.7323 24.6735 13.0024C24.6735 6.27256 19.234 0.804688 12.4896 0.804688ZM12.4896 2.25509C18.4362 2.25509 23.2231 7.07028 23.2231 13.0024C23.2231 18.9346 18.4362 23.7501 12.4896 23.7501C6.54296 23.7501 1.75606 18.9346 1.75606 13.0024C1.75606 7.07028 6.54296 2.25509 12.4896 2.25509ZM12.4896 17.2233C13.0698 17.2233 13.5774 17.7017 13.5774 18.2891C13.5774 18.8693 13.0698 19.3479 12.4896 19.3479C11.9094 19.3479 11.4018 18.8693 11.4018 18.2891C11.4018 17.7017 11.9094 17.2233 12.4896 17.2233ZM11.7644 6.73698V14.8083C11.7644 15.2072 12.0545 15.5335 12.4896 15.5335C12.9247 15.5335 13.2148 15.2072 13.2148 14.8083V6.73698C13.2148 6.33812 12.9247 6.01178 12.4896 6.01178C12.0545 6.01178 11.7644 6.33812 11.7644 6.73698Z" fill="#8B97A3"/>
</svg>
