<svg width="52" height="56" viewBox="0 0 52 56" fill="none" xmlns="http://www.w3.org/2000/svg">
<path fill-rule="evenodd" clip-rule="evenodd" d="M20 36.0001V11C20 10.448 19.552 10 19 10H6.99998C6.44798 10 5.99998 10.448 5.99998 11V36.0001H0.999974C0.630964 36.0001 0.292964 36.2031 0.117964 36.5281C-0.0560358 36.8531 -0.0360356 37.2481 0.167964 37.5551L12.168 55.5552C12.354 55.8332 12.666 56.0002 13 56.0002C13.335 56.0002 13.647 55.8332 13.832 55.5552L25.8321 37.5551C26.0371 37.2481 26.0561 36.8531 25.8821 36.5281C25.7081 36.2031 25.3691 36.0001 25.0001 36.0001H20ZM18 37.0001C18 37.5521 18.448 38.0001 19 38.0001H23.1321L13 53.1972L2.86897 38.0001H6.99998C7.55198 38.0001 7.99998 37.5521 7.99998 37.0001V12H18V37.0001ZM32.0001 20.0001V45.0002C32.0001 45.5522 32.4481 46.0002 33.0001 46.0002H45.0001C45.5521 46.0002 46.0001 45.5522 46.0001 45.0002V20.0001H51.0002C51.3692 20.0001 51.7082 19.7971 51.8822 19.4721C52.0562 19.1471 52.0372 18.7521 51.8322 18.4451L39.8321 0.445C39.6471 0.167 39.3351 0 39.0001 0C38.6661 0 38.3541 0.167 38.1681 0.445L26.1681 18.4451C25.9641 18.7521 25.9441 19.1471 26.1181 19.4721C26.2931 19.7971 26.6311 20.0001 27.0001 20.0001H32.0001ZM34.0001 19.0001C34.0001 18.4481 33.5521 18.0001 33.0001 18.0001H28.8691L39.0001 2.80301L49.1322 18.0001H45.0001C44.4481 18.0001 44.0001 18.4481 44.0001 19.0001V44.0002H34.0001V19.0001Z" fill="#0FD895"/>
</svg>
