<svg width="56" height="49" viewBox="0 0 56 49" fill="none" xmlns="http://www.w3.org/2000/svg">
<path fill-rule="evenodd" clip-rule="evenodd" d="M20.8771 4.63086L38.8121 0.146873C40.1081 -0.177127 41.4812 0.0398736 42.6132 0.748884C43.7462 1.45788 44.5412 2.59688 44.8162 3.90389L44.9692 4.63086C44.9802 4.63086 44.9901 4.63086 45.0001 4.63086C45.0001 4.63086 45.8921 4.63086 46.9871 4.63086C48.3171 4.63086 49.5922 5.15886 50.5322 6.09886C51.4722 7.03886 52.0001 8.31386 52.0001 9.64386V22.631H52.9822C53.7832 22.631 54.5502 22.949 55.1162 23.515C55.6822 24.081 56.0003 24.848 56.0003 25.649V33.613C56.0003 34.414 55.6822 35.181 55.1162 35.747C54.5502 36.3131 53.7832 36.631 52.9822 36.631H52.0001V43.9391C52.0001 45.1841 51.5061 46.3771 50.6261 47.2571C49.7461 48.1371 48.5532 48.6311 47.3082 48.6311C38.0542 48.6311 13.9461 48.6311 4.69202 48.6311C3.44701 48.6311 2.25401 48.1371 1.37401 47.2571C0.494 46.3771 0 45.1841 0 43.9391V9.63086C0.007 6.86786 2.24801 4.63086 5.01302 4.63086H20.8771ZM50.0001 22.631V17.323C50.0001 16.609 49.7162 15.924 49.2122 15.419C48.7072 14.915 48.0222 14.631 47.3082 14.631H5.00002C3.83801 14.631 2.81401 14.309 2.00001 13.738V43.9391C2.00001 44.6531 2.28401 45.3381 2.78801 45.8431C3.29301 46.3471 3.97801 46.6311 4.69202 46.6311H47.3082C48.0222 46.6311 48.7072 46.3471 49.2122 45.8431C49.7162 45.3381 50.0001 44.6531 50.0001 43.9391V36.631H42.6832C40.0972 36.631 38.0001 34.534 38.0001 31.948C38.0001 30.477 38.0001 28.785 38.0001 27.314C38.0001 24.728 40.0972 22.631 42.6832 22.631H50.0001ZM54.0001 25.649V33.613C54.0001 33.883 53.8932 34.142 53.7021 34.333C53.5111 34.524 53.2522 34.631 52.9822 34.631H42.6832C41.2012 34.631 40.0001 33.43 40.0001 31.948C40.0001 30.477 40.0001 28.785 40.0001 27.314C40.0001 25.832 41.2012 24.631 42.6832 24.631H52.9822C53.2522 24.631 53.5111 24.738 53.7021 24.929C53.8932 25.12 54.0001 25.379 54.0001 25.649ZM45.0001 27.631C43.8961 27.631 43.0001 28.527 43.0001 29.631C43.0001 30.735 43.8961 31.631 45.0001 31.631C46.1041 31.631 47.0001 30.735 47.0001 29.631C47.0001 28.527 46.1041 27.631 45.0001 27.631ZM12.877 6.63086H5.01302C3.35201 6.63086 2.00601 7.97386 2.00001 9.63286L2.00101 9.71296C2.03901 11.433 3.26401 12.631 5.00002 12.631H47.3082C48.2782 12.631 49.2161 12.931 50.0001 13.48V9.64286C50.0001 8.84486 49.6831 8.07786 49.1181 7.51286C48.5531 6.94786 47.7861 6.63086 46.9871 6.63086H45.3901L45.9791 9.42486C46.0411 9.71996 45.9661 10.027 45.7771 10.261C45.5871 10.495 45.3011 10.631 45.0001 10.631H5.00002C4.49502 10.631 4.06902 10.254 4.00701 9.75296C3.94601 9.25186 4.26802 8.78286 4.75702 8.66086L12.877 6.63086ZM21.225 6.60586C21.237 6.60286 21.249 6.59986 21.261 6.59586L39.2971 2.08688C40.0661 1.89488 40.8802 2.02388 41.5522 2.44488C42.2242 2.86489 42.6961 3.54089 42.8591 4.31589L43.7682 8.63086H13.123L21.225 6.60586Z" fill="#0FD895"/>
</svg>
